<?xml version="1.0" encoding="UTF-8" standalone="no"?>
<!-- Created with Inkscape (http://www.inkscape.org/) -->

<svg
   xmlns:dc="http://purl.org/dc/elements/1.1/"
   xmlns:cc="http://creativecommons.org/ns#"
   xmlns:rdf="http://www.w3.org/1999/02/22-rdf-syntax-ns#"
   xmlns:svg="http://www.w3.org/2000/svg"
   xmlns="http://www.w3.org/2000/svg"
   xmlns:sodipodi="http://sodipodi.sourceforge.net/DTD/sodipodi-0.dtd"
   xmlns:inkscape="http://www.inkscape.org/namespaces/inkscape"
   version="1.1"
   id="svg1458"
   xml:space="preserve"
   width="357.30005"
   height="274.55884"
   viewBox="0 0 357.30005 274.55884"
   sodipodi:docname="piebolawavegait.svg"
   inkscape:version="0.92.4 (5da689c313, 2019-01-14)"
   inkscape:export-filename="/home/cancerbero/data/tesis/presentacion/presentacion-tesis/images/diagramapiebola.png"
   inkscape:export-xdpi="200"
   inkscape:export-ydpi="200"><metadata
     id="metadata1464"><rdf:RDF><cc:Work
         rdf:about=""><dc:format>image/svg+xml</dc:format><dc:type
           rdf:resource="http://purl.org/dc/dcmitype/StillImage" /><dc:title></dc:title></cc:Work></rdf:RDF></metadata><defs
     id="defs1462" /><sodipodi:namedview
     pagecolor="#ffffff"
     bordercolor="#666666"
     borderopacity="1"
     objecttolerance="10"
     gridtolerance="10"
     guidetolerance="10"
     inkscape:pageopacity="0"
     inkscape:pageshadow="2"
     inkscape:window-width="1916"
     inkscape:window-height="1041"
     id="namedview1460"
     showgrid="false"
     fit-margin-top="10"
     fit-margin-left="10"
     fit-margin-right="10"
     fit-margin-bottom="10"
     inkscape:zoom="1.6313452"
     inkscape:cx="55.305924"
     inkscape:cy="101.21339"
     inkscape:window-x="0"
     inkscape:window-y="18"
     inkscape:window-maximized="0"
     inkscape:current-layer="g1466" /><g
     id="g1466"
     inkscape:groupmode="layer"
     inkscape:label="ink_ext_XXXXXX"
     transform="matrix(1.3333333,0,0,-1.3333333,5.3166668,269.24218)"><path
       inkscape:connector-curvature="0"
       id="path1470"
       style="fill:#e6e6e6;fill-opacity:1;fill-rule:evenodd;stroke:#e6e6e6;stroke-width:0.1;stroke-opacity:1"
       d="m 16,166 c 0,3.314 -2.6863,6 -6,6 -3.31367,0 -6,-2.686 -6,-6 0,-3.314 2.68633,-6 6,-6 3.3137,0 6,2.686 6,6" /><path
       inkscape:connector-curvature="0"
       id="path1472"
       style="fill:#e6e6e6;fill-opacity:1;stroke:#e6e6e6;stroke-width:0.97500002;stroke-linecap:round;stroke-linejoin:miter;stroke-miterlimit:6;stroke-dasharray:none;stroke-opacity:1"
       d="m 16,166 c 0,3.314 -2.6863,6 -6,6 -3.31367,0 -6,-2.686 -6,-6 0,-3.314 2.68633,-6 6,-6 3.3137,0 6,2.686 6,6" /><path
       inkscape:connector-curvature="0"
       id="path1474"
       style="fill:#e6e6e6;fill-opacity:1;fill-rule:evenodd;stroke:#e6e6e6;stroke-width:0.1;stroke-opacity:1"
       d="m 40,166 c 0,3.314 -2.6863,6 -6,6 -3.3137,0 -6,-2.686 -6,-6 0,-3.314 2.6863,-6 6,-6 3.3137,0 6,2.686 6,6" /><path
       inkscape:connector-curvature="0"
       id="path1476"
       style="fill:#e6e6e6;fill-opacity:1;stroke:#e6e6e6;stroke-width:0.97500002;stroke-linecap:round;stroke-linejoin:miter;stroke-miterlimit:6;stroke-dasharray:none;stroke-opacity:1"
       d="m 40,166 c 0,3.314 -2.6863,6 -6,6 -3.3137,0 -6,-2.686 -6,-6 0,-3.314 2.6863,-6 6,-6 3.3137,0 6,2.686 6,6" /><path
       inkscape:connector-curvature="0"
       id="path1478"
       style="fill:#e6e6e6;fill-opacity:1;fill-rule:evenodd;stroke:#e6e6e6;stroke-width:0.1;stroke-opacity:1"
       d="m 64,166 c 0,3.314 -2.6863,6 -6,6 -3.3137,0 -6,-2.686 -6,-6 0,-3.314 2.6863,-6 6,-6 3.3137,0 6,2.686 6,6" /><path
       inkscape:connector-curvature="0"
       id="path1480"
       style="fill:#e6e6e6;fill-opacity:1;stroke:#e6e6e6;stroke-width:0.97500002;stroke-linecap:round;stroke-linejoin:miter;stroke-miterlimit:6;stroke-dasharray:none;stroke-opacity:1"
       d="m 64,166 c 0,3.314 -2.6863,6 -6,6 -3.3137,0 -6,-2.686 -6,-6 0,-3.314 2.6863,-6 6,-6 3.3137,0 6,2.686 6,6" /><path
       inkscape:connector-curvature="0"
       id="path1482"
       style="fill:#e6e6e6;fill-opacity:1;fill-rule:evenodd;stroke:#e6e6e6;stroke-width:0.1;stroke-opacity:1"
       d="m 40,118 c 0,3.314 -2.6863,6 -6,6 -3.3137,0 -6,-2.686 -6,-6 0,-3.314 2.6863,-6 6,-6 3.3137,0 6,2.686 6,6" /><path
       inkscape:connector-curvature="0"
       id="path1484"
       style="fill:#e6e6e6;fill-opacity:1;stroke:#e6e6e6;stroke-width:0.97500002;stroke-linecap:round;stroke-linejoin:miter;stroke-miterlimit:6;stroke-dasharray:none;stroke-opacity:1"
       d="m 40,118 c 0,3.314 -2.6863,6 -6,6 -3.3137,0 -6,-2.686 -6,-6 0,-3.314 2.6863,-6 6,-6 3.3137,0 6,2.686 6,6" /><path
       inkscape:connector-curvature="0"
       id="path1486"
       style="fill:#e6e6e6;fill-opacity:1;fill-rule:evenodd;stroke:#e6e6e6;stroke-width:0.1;stroke-opacity:1"
       d="m 64,118 c 0,3.314 -2.6863,6 -6,6 -3.3137,0 -6,-2.686 -6,-6 0,-3.314 2.6863,-6 6,-6 3.3137,0 6,2.686 6,6" /><path
       inkscape:connector-curvature="0"
       id="path1488"
       style="fill:#e6e6e6;fill-opacity:1;stroke:#e6e6e6;stroke-width:0.97500002;stroke-linecap:round;stroke-linejoin:miter;stroke-miterlimit:6;stroke-dasharray:none;stroke-opacity:1"
       d="m 64,118 c 0,3.314 -2.6863,6 -6,6 -3.3137,0 -6,-2.686 -6,-6 0,-3.314 2.6863,-6 6,-6 3.3137,0 6,2.686 6,6" /><path
       inkscape:connector-curvature="0"
       id="path1490"
       style="fill:none;stroke:#e6e6e6;stroke-width:0.97500002;stroke-linecap:round;stroke-linejoin:miter;stroke-miterlimit:6;stroke-dasharray:none;stroke-opacity:1"
       d="m 16,118 c 0,3.314 -2.6863,6 -6,6 -3.31367,0 -6,-2.686 -6,-6 0,-3.314 2.68633,-6 6,-6 3.3137,0 6,2.686 6,6" /><path
       inkscape:connector-curvature="0"
       id="path1492"
       style="fill:#e6e6e6;fill-opacity:1;stroke:#e6e6e6;stroke-width:0.97500002;stroke-linecap:round;stroke-linejoin:miter;stroke-miterlimit:6;stroke-dasharray:none;stroke-opacity:1"
       d="M 58,142 H 10" /><path
       inkscape:connector-curvature="0"
       id="path1494"
       style="fill:#e6e6e6;fill-opacity:1;fill-rule:evenodd;stroke:#e6e6e6;stroke-width:0.1;stroke-opacity:1"
       d="m 53.5,139 c 3.75,1.875 4.875,1.875 10.5,3 -5.625,1.125 -6.75,1.125 -10.5,3 0.75,-2.25 0.75,-3.75 0,-6" /><path
       inkscape:connector-curvature="0"
       id="path1496"
       style="fill:#e6e6e6;fill-opacity:1;fill-rule:evenodd;stroke:#e6e6e6;stroke-width:0.1;stroke-opacity:1"
       d="m 160,166 c 0,3.314 -2.686,6 -6,6 -3.314,0 -6,-2.686 -6,-6 0,-3.314 2.686,-6 6,-6 3.314,0 6,2.686 6,6" /><path
       inkscape:connector-curvature="0"
       id="path1498"
       style="fill:#e6e6e6;fill-opacity:1;stroke:#e6e6e6;stroke-width:0.97500002;stroke-linecap:round;stroke-linejoin:miter;stroke-miterlimit:6;stroke-dasharray:none;stroke-opacity:1"
       d="m 160,166 c 0,3.314 -2.686,6 -6,6 -3.314,0 -6,-2.686 -6,-6 0,-3.314 2.686,-6 6,-6 3.314,0 6,2.686 6,6" /><path
       inkscape:connector-curvature="0"
       id="path1500"
       style="fill:#e6e6e6;fill-opacity:1;fill-rule:evenodd;stroke:#e6e6e6;stroke-width:0.1;stroke-opacity:1"
       d="m 136,166 c 0,3.314 -2.686,6 -6,6 -3.314,0 -6,-2.686 -6,-6 0,-3.314 2.686,-6 6,-6 3.314,0 6,2.686 6,6" /><path
       inkscape:connector-curvature="0"
       id="path1502"
       style="fill:#e6e6e6;fill-opacity:1;stroke:#e6e6e6;stroke-width:0.97500002;stroke-linecap:round;stroke-linejoin:miter;stroke-miterlimit:6;stroke-dasharray:none;stroke-opacity:1"
       d="m 136,166 c 0,3.314 -2.686,6 -6,6 -3.314,0 -6,-2.686 -6,-6 0,-3.314 2.686,-6 6,-6 3.314,0 6,2.686 6,6" /><path
       inkscape:connector-curvature="0"
       id="path1504"
       style="fill:#e6e6e6;fill-opacity:1;fill-rule:evenodd;stroke:#e6e6e6;stroke-width:0.1;stroke-opacity:1"
       d="m 112,166 c 0,3.314 -2.686,6 -6,6 -3.314,0 -6,-2.686 -6,-6 0,-3.314 2.686,-6 6,-6 3.314,0 6,2.686 6,6" /><path
       inkscape:connector-curvature="0"
       id="path1506"
       style="fill:#e6e6e6;fill-opacity:1;stroke:#e6e6e6;stroke-width:0.97500002;stroke-linecap:round;stroke-linejoin:miter;stroke-miterlimit:6;stroke-dasharray:none;stroke-opacity:1"
       d="m 112,166 c 0,3.314 -2.686,6 -6,6 -3.314,0 -6,-2.686 -6,-6 0,-3.314 2.686,-6 6,-6 3.314,0 6,2.686 6,6" /><path
       inkscape:connector-curvature="0"
       id="path1508"
       style="fill:#e6e6e6;fill-opacity:1;stroke:#e6e6e6;stroke-width:0.97500002;stroke-linecap:round;stroke-linejoin:miter;stroke-miterlimit:6;stroke-dasharray:none;stroke-opacity:1"
       d="M 154,142 H 106" /><path
       inkscape:connector-curvature="0"
       id="path1510"
       style="fill:#e6e6e6;fill-opacity:1;fill-rule:evenodd;stroke:#e6e6e6;stroke-width:0.1;stroke-opacity:1"
       d="m 149.5,139 c 3.75,1.875 4.875,1.875 10.5,3 -5.625,1.125 -6.75,1.125 -10.5,3 0.75,-2.25 0.75,-3.75 0,-6" /><path
       inkscape:connector-curvature="0"
       id="path1512"
       style="fill:#e6e6e6;fill-opacity:1;fill-rule:evenodd;stroke:#e6e6e6;stroke-width:0.1;stroke-opacity:1"
       d="m 160,118 c 0,3.314 -2.686,6 -6,6 -3.314,0 -6,-2.686 -6,-6 0,-3.314 2.686,-6 6,-6 3.314,0 6,2.686 6,6" /><path
       inkscape:connector-curvature="0"
       id="path1514"
       style="fill:#e6e6e6;fill-opacity:1;stroke:#e6e6e6;stroke-width:0.97500002;stroke-linecap:round;stroke-linejoin:miter;stroke-miterlimit:6;stroke-dasharray:none;stroke-opacity:1"
       d="m 160,118 c 0,3.314 -2.686,6 -6,6 -3.314,0 -6,-2.686 -6,-6 0,-3.314 2.686,-6 6,-6 3.314,0 6,2.686 6,6" /><path
       inkscape:connector-curvature="0"
       id="path1516"
       style="fill:none;stroke:#e6e6e6;stroke-width:0.97500002;stroke-linecap:round;stroke-linejoin:miter;stroke-miterlimit:6;stroke-dasharray:none;stroke-opacity:1"
       d="m 136,118 c 0,3.314 -2.686,6 -6,6 -3.314,0 -6,-2.686 -6,-6 0,-3.314 2.686,-6 6,-6 3.314,0 6,2.686 6,6" /><path
       inkscape:connector-curvature="0"
       id="path1518"
       style="fill:#e6e6e6;fill-opacity:1;fill-rule:evenodd;stroke:#e6e6e6;stroke-width:0.1;stroke-opacity:1"
       d="m 112,118 c 0,3.314 -2.686,6 -6,6 -3.314,0 -6,-2.686 -6,-6 0,-3.314 2.686,-6 6,-6 3.314,0 6,2.686 6,6" /><path
       inkscape:connector-curvature="0"
       id="path1520"
       style="fill:#e6e6e6;fill-opacity:1;stroke:#e6e6e6;stroke-width:0.97500002;stroke-linecap:round;stroke-linejoin:miter;stroke-miterlimit:6;stroke-dasharray:none;stroke-opacity:1"
       d="m 112,118 c 0,3.314 -2.686,6 -6,6 -3.314,0 -6,-2.686 -6,-6 0,-3.314 2.686,-6 6,-6 3.314,0 6,2.686 6,6" /><path
       inkscape:connector-curvature="0"
       id="path1522"
       style="fill:#e6e6e6;fill-opacity:1;fill-rule:evenodd;stroke:#e6e6e6;stroke-width:0.1;stroke-opacity:1"
       d="m 256,166 c 0,3.314 -2.686,6 -6,6 -3.314,0 -6,-2.686 -6,-6 0,-3.314 2.686,-6 6,-6 3.314,0 6,2.686 6,6" /><path
       inkscape:connector-curvature="0"
       id="path1524"
       style="fill:#e6e6e6;fill-opacity:1;stroke:#e6e6e6;stroke-width:0.97500002;stroke-linecap:round;stroke-linejoin:miter;stroke-miterlimit:6;stroke-dasharray:none;stroke-opacity:1"
       d="m 256,166 c 0,3.314 -2.686,6 -6,6 -3.314,0 -6,-2.686 -6,-6 0,-3.314 2.686,-6 6,-6 3.314,0 6,2.686 6,6" /><path
       inkscape:connector-curvature="0"
       id="path1526"
       style="fill:#e6e6e6;fill-opacity:1;fill-rule:evenodd;stroke:#e6e6e6;stroke-width:0.1;stroke-opacity:1"
       d="m 232,166 c 0,3.314 -2.686,6 -6,6 -3.314,0 -6,-2.686 -6,-6 0,-3.314 2.686,-6 6,-6 3.314,0 6,2.686 6,6" /><path
       inkscape:connector-curvature="0"
       id="path1528"
       style="fill:#e6e6e6;fill-opacity:1;stroke:#e6e6e6;stroke-width:0.97500002;stroke-linecap:round;stroke-linejoin:miter;stroke-miterlimit:6;stroke-dasharray:none;stroke-opacity:1"
       d="m 232,166 c 0,3.314 -2.686,6 -6,6 -3.314,0 -6,-2.686 -6,-6 0,-3.314 2.686,-6 6,-6 3.314,0 6,2.686 6,6" /><path
       inkscape:connector-curvature="0"
       id="path1530"
       style="fill:#e6e6e6;fill-opacity:1;fill-rule:evenodd;stroke:#e6e6e6;stroke-width:0.1;stroke-opacity:1"
       d="m 208,166 c 0,3.314 -2.686,6 -6,6 -3.314,0 -6,-2.686 -6,-6 0,-3.314 2.686,-6 6,-6 3.314,0 6,2.686 6,6" /><path
       inkscape:connector-curvature="0"
       id="path1532"
       style="fill:#e6e6e6;fill-opacity:1;stroke:#e6e6e6;stroke-width:0.97500002;stroke-linecap:round;stroke-linejoin:miter;stroke-miterlimit:6;stroke-dasharray:none;stroke-opacity:1"
       d="m 208,166 c 0,3.314 -2.686,6 -6,6 -3.314,0 -6,-2.686 -6,-6 0,-3.314 2.686,-6 6,-6 3.314,0 6,2.686 6,6" /><path
       inkscape:connector-curvature="0"
       id="path1534"
       style="fill:#e6e6e6;fill-opacity:1;stroke:#e6e6e6;stroke-width:0.97500002;stroke-linecap:round;stroke-linejoin:miter;stroke-miterlimit:6;stroke-dasharray:none;stroke-opacity:1"
       d="M 250,142 H 202" /><path
       inkscape:connector-curvature="0"
       id="path1536"
       style="fill:#e6e6e6;fill-opacity:1;fill-rule:evenodd;stroke:#e6e6e6;stroke-width:0.1;stroke-opacity:1"
       d="m 245.5,139 c 3.75,1.875 4.875,1.875 10.5,3 -5.625,1.125 -6.75,1.125 -10.5,3 0.75,-2.25 0.75,-3.75 0,-6" /><path
       inkscape:connector-curvature="0"
       id="path1538"
       style="fill:none;stroke:#e6e6e6;stroke-width:0.97500002;stroke-linecap:round;stroke-linejoin:miter;stroke-miterlimit:6;stroke-dasharray:none;stroke-opacity:1"
       d="m 256,118 c 0,3.314 -2.686,6 -6,6 -3.314,0 -6,-2.686 -6,-6 0,-3.314 2.686,-6 6,-6 3.314,0 6,2.686 6,6" /><path
       inkscape:connector-curvature="0"
       id="path1540"
       style="fill:#e6e6e6;fill-opacity:1;fill-rule:evenodd;stroke:#e6e6e6;stroke-width:0.1;stroke-opacity:1"
       d="m 232,118 c 0,3.314 -2.686,6 -6,6 -3.314,0 -6,-2.686 -6,-6 0,-3.314 2.686,-6 6,-6 3.314,0 6,2.686 6,6" /><path
       inkscape:connector-curvature="0"
       id="path1542"
       style="fill:#e6e6e6;fill-opacity:1;stroke:#e6e6e6;stroke-width:0.97500002;stroke-linecap:round;stroke-linejoin:miter;stroke-miterlimit:6;stroke-dasharray:none;stroke-opacity:1"
       d="m 232,118 c 0,3.314 -2.686,6 -6,6 -3.314,0 -6,-2.686 -6,-6 0,-3.314 2.686,-6 6,-6 3.314,0 6,2.686 6,6" /><path
       inkscape:connector-curvature="0"
       id="path1544"
       style="fill:#e6e6e6;fill-opacity:1;fill-rule:evenodd;stroke:#e6e6e6;stroke-width:0.1;stroke-opacity:1"
       d="m 208,118 c 0,3.314 -2.686,6 -6,6 -3.314,0 -6,-2.686 -6,-6 0,-3.314 2.686,-6 6,-6 3.314,0 6,2.686 6,6" /><path
       inkscape:connector-curvature="0"
       id="path1546"
       style="fill:#e6e6e6;fill-opacity:1;stroke:#e6e6e6;stroke-width:0.97500002;stroke-linecap:round;stroke-linejoin:miter;stroke-miterlimit:6;stroke-dasharray:none;stroke-opacity:1"
       d="m 208,118 c 0,3.314 -2.686,6 -6,6 -3.314,0 -6,-2.686 -6,-6 0,-3.314 2.686,-6 6,-6 3.314,0 6,2.686 6,6" /><path
       inkscape:connector-curvature="0"
       id="path1548"
       style="fill:#e6e6e6;fill-opacity:1;fill-rule:evenodd;stroke:#e6e6e6;stroke-width:0.1;stroke-opacity:1"
       d="m 64,58 c 0,3.3137 -2.6863,6 -6,6 -3.3137,0 -6,-2.6863 -6,-6 0,-3.3137 2.6863,-6 6,-6 3.3137,0 6,2.6863 6,6" /><path
       inkscape:connector-curvature="0"
       id="path1550"
       style="fill:#e6e6e6;fill-opacity:1;stroke:#e6e6e6;stroke-width:0.97500002;stroke-linecap:round;stroke-linejoin:miter;stroke-miterlimit:6;stroke-dasharray:none;stroke-opacity:1"
       d="m 64,58 c 0,3.3137 -2.6863,6 -6,6 -3.3137,0 -6,-2.6863 -6,-6 0,-3.3137 2.6863,-6 6,-6 3.3137,0 6,2.6863 6,6" /><path
       inkscape:connector-curvature="0"
       id="path1552"
       style="fill:#e6e6e6;fill-opacity:1;fill-rule:evenodd;stroke:#e6e6e6;stroke-width:0.1;stroke-opacity:1"
       d="m 40,58 c 0,3.3137 -2.6863,6 -6,6 -3.3137,0 -6,-2.6863 -6,-6 0,-3.3137 2.6863,-6 6,-6 3.3137,0 6,2.6863 6,6" /><path
       inkscape:connector-curvature="0"
       id="path1554"
       style="fill:#e6e6e6;fill-opacity:1;stroke:#e6e6e6;stroke-width:0.97500002;stroke-linecap:round;stroke-linejoin:miter;stroke-miterlimit:6;stroke-dasharray:none;stroke-opacity:1"
       d="m 40,58 c 0,3.3137 -2.6863,6 -6,6 -3.3137,0 -6,-2.6863 -6,-6 0,-3.3137 2.6863,-6 6,-6 3.3137,0 6,2.6863 6,6" /><path
       inkscape:connector-curvature="0"
       id="path1556"
       style="fill:none;stroke:#e6e6e6;stroke-width:0.97500002;stroke-linecap:round;stroke-linejoin:miter;stroke-miterlimit:6;stroke-dasharray:none;stroke-opacity:1"
       d="m 16,58 c 0,3.3137 -2.6863,6 -6,6 -3.31367,0 -6,-2.6863 -6,-6 0,-3.3137 2.68633,-6 6,-6 3.3137,0 6,2.6863 6,6" /><path
       inkscape:connector-curvature="0"
       id="path1558"
       style="fill:none;stroke:#e6e6e6;stroke-width:0.97500002;stroke-linecap:round;stroke-linejoin:miter;stroke-miterlimit:6;stroke-dasharray:none;stroke-opacity:1"
       d="M 58,34 H 10" /><path
       inkscape:connector-curvature="0"
       id="path1560"
       style="fill:#e6e6e6;fill-opacity:1;fill-rule:evenodd;stroke:#e6e6e6;stroke-width:0.1;stroke-opacity:1"
       d="m 53.5,31 c 3.75,1.875 4.875,1.875 10.5,3 -5.625,1.125 -6.75,1.125 -10.5,3 0.75,-2.25 0.75,-3.75 0,-6" /><path
       inkscape:connector-curvature="0"
       id="path1562"
       style="fill:#e6e6e6;fill-opacity:1;fill-rule:evenodd;stroke:#e6e6e6;stroke-width:0.1;stroke-opacity:1"
       d="m 64,10 c 0,3.3137 -2.6863,6 -6,6 -3.3137,0 -6,-2.6863 -6,-6 0,-3.31367 2.6863,-6 6,-6 3.3137,0 6,2.68633 6,6" /><path
       inkscape:connector-curvature="0"
       id="path1564"
       style="fill:#e6e6e6;fill-opacity:1;stroke:#e6e6e6;stroke-width:0.97500002;stroke-linecap:round;stroke-linejoin:miter;stroke-miterlimit:6;stroke-dasharray:none;stroke-opacity:1"
       d="m 64,10 c 0,3.3137 -2.6863,6 -6,6 -3.3137,0 -6,-2.6863 -6,-6 0,-3.31367 2.6863,-6 6,-6 3.3137,0 6,2.68633 6,6" /><path
       inkscape:connector-curvature="0"
       id="path1566"
       style="fill:#e6e6e6;fill-opacity:1;fill-rule:evenodd;stroke:#e6e6e6;stroke-width:0.1;stroke-opacity:1"
       d="m 40,10 c 0,3.3137 -2.6863,6 -6,6 -3.3137,0 -6,-2.6863 -6,-6 0,-3.31367 2.6863,-6 6,-6 3.3137,0 6,2.68633 6,6" /><path
       inkscape:connector-curvature="0"
       id="path1568"
       style="fill:#e6e6e6;fill-opacity:1;stroke:#e6e6e6;stroke-width:0.97500002;stroke-linecap:round;stroke-linejoin:miter;stroke-miterlimit:6;stroke-dasharray:none;stroke-opacity:1"
       d="m 40,10 c 0,3.3137 -2.6863,6 -6,6 -3.3137,0 -6,-2.6863 -6,-6 0,-3.31367 2.6863,-6 6,-6 3.3137,0 6,2.68633 6,6" /><path
       inkscape:connector-curvature="0"
       id="path1570"
       style="fill:#e6e6e6;fill-opacity:1;fill-rule:evenodd;stroke:#e6e6e6;stroke-width:0.1;stroke-opacity:1"
       d="m 16,10 c 0,3.3137 -2.6863,6 -6,6 -3.31367,0 -6,-2.6863 -6,-6 0,-3.31367 2.68633,-6 6,-6 3.3137,0 6,2.68633 6,6" /><path
       inkscape:connector-curvature="0"
       id="path1572"
       style="fill:#e6e6e6;fill-opacity:1;stroke:#e6e6e6;stroke-width:0.97500002;stroke-linecap:round;stroke-linejoin:miter;stroke-miterlimit:6;stroke-dasharray:none;stroke-opacity:1"
       d="m 16,10 c 0,3.3137 -2.6863,6 -6,6 -3.31367,0 -6,-2.6863 -6,-6 0,-3.31367 2.68633,-6 6,-6 3.3137,0 6,2.68633 6,6" /><path
       inkscape:connector-curvature="0"
       id="path1574"
       style="fill:#e6e6e6;fill-opacity:1;fill-rule:evenodd;stroke:#e6e6e6;stroke-width:0.1;stroke-opacity:1"
       d="m 160,58 c 0,3.3137 -2.686,6 -6,6 -3.314,0 -6,-2.6863 -6,-6 0,-3.3137 2.686,-6 6,-6 3.314,0 6,2.6863 6,6" /><path
       inkscape:connector-curvature="0"
       id="path1576"
       style="fill:#e6e6e6;fill-opacity:1;stroke:#e6e6e6;stroke-width:0.97500002;stroke-linecap:round;stroke-linejoin:miter;stroke-miterlimit:6;stroke-dasharray:none;stroke-opacity:1"
       d="m 160,58 c 0,3.3137 -2.686,6 -6,6 -3.314,0 -6,-2.6863 -6,-6 0,-3.3137 2.686,-6 6,-6 3.314,0 6,2.6863 6,6" /><path
       inkscape:connector-curvature="0"
       id="path1578"
       style="fill:none;stroke:#e6e6e6;stroke-width:0.97500002;stroke-linecap:round;stroke-linejoin:miter;stroke-miterlimit:6;stroke-dasharray:none;stroke-opacity:1"
       d="m 136,58 c 0,3.3137 -2.686,6 -6,6 -3.314,0 -6,-2.6863 -6,-6 0,-3.3137 2.686,-6 6,-6 3.314,0 6,2.6863 6,6" /><path
       inkscape:connector-curvature="0"
       id="path1580"
       style="fill:#e6e6e6;fill-opacity:1;fill-rule:evenodd;stroke:#e6e6e6;stroke-width:0.1;stroke-opacity:1"
       d="m 112,58 c 0,3.3137 -2.686,6 -6,6 -3.314,0 -6,-2.6863 -6,-6 0,-3.3137 2.686,-6 6,-6 3.314,0 6,2.6863 6,6" /><path
       inkscape:connector-curvature="0"
       id="path1582"
       style="fill:#e6e6e6;fill-opacity:1;stroke:#e6e6e6;stroke-width:0.97500002;stroke-linecap:round;stroke-linejoin:miter;stroke-miterlimit:6;stroke-dasharray:none;stroke-opacity:1"
       d="m 112,58 c 0,3.3137 -2.686,6 -6,6 -3.314,0 -6,-2.6863 -6,-6 0,-3.3137 2.686,-6 6,-6 3.314,0 6,2.6863 6,6" /><path
       inkscape:connector-curvature="0"
       id="path1584"
       style="fill:#e6e6e6;fill-opacity:1;stroke:#e6e6e6;stroke-width:0.97500002;stroke-linecap:round;stroke-linejoin:miter;stroke-miterlimit:6;stroke-dasharray:none;stroke-opacity:1"
       d="M 154,34 H 106" /><path
       inkscape:connector-curvature="0"
       id="path1586"
       style="fill:#e6e6e6;fill-opacity:1;fill-rule:evenodd;stroke:#e6e6e6;stroke-width:0.1;stroke-opacity:1"
       d="m 149.5,31 c 3.75,1.875 4.875,1.875 10.5,3 -5.625,1.125 -6.75,1.125 -10.5,3 0.75,-2.25 0.75,-3.75 0,-6" /><path
       inkscape:connector-curvature="0"
       id="path1588"
       style="fill:#e6e6e6;fill-opacity:1;fill-rule:evenodd;stroke:#e6e6e6;stroke-width:0.1;stroke-opacity:1"
       d="m 160,10 c 0,3.3137 -2.686,6 -6,6 -3.314,0 -6,-2.6863 -6,-6 0,-3.31367 2.686,-6 6,-6 3.314,0 6,2.68633 6,6" /><path
       inkscape:connector-curvature="0"
       id="path1590"
       style="fill:#e6e6e6;fill-opacity:1;stroke:#e6e6e6;stroke-width:0.97500002;stroke-linecap:round;stroke-linejoin:miter;stroke-miterlimit:6;stroke-dasharray:none;stroke-opacity:1"
       d="m 160,10 c 0,3.3137 -2.686,6 -6,6 -3.314,0 -6,-2.6863 -6,-6 0,-3.31367 2.686,-6 6,-6 3.314,0 6,2.68633 6,6" /><path
       inkscape:connector-curvature="0"
       id="path1592"
       style="fill:#e6e6e6;fill-opacity:1;fill-rule:evenodd;stroke:#e6e6e6;stroke-width:0.1;stroke-opacity:1"
       d="m 136,10 c 0,3.3137 -2.686,6 -6,6 -3.314,0 -6,-2.6863 -6,-6 0,-3.31367 2.686,-6 6,-6 3.314,0 6,2.68633 6,6" /><path
       inkscape:connector-curvature="0"
       id="path1594"
       style="fill:#e6e6e6;fill-opacity:1;stroke:#e6e6e6;stroke-width:0.97500002;stroke-linecap:round;stroke-linejoin:miter;stroke-miterlimit:6;stroke-dasharray:none;stroke-opacity:1"
       d="m 136,10 c 0,3.3137 -2.686,6 -6,6 -3.314,0 -6,-2.6863 -6,-6 0,-3.31367 2.686,-6 6,-6 3.314,0 6,2.68633 6,6" /><path
       inkscape:connector-curvature="0"
       id="path1596"
       style="fill:#e6e6e6;fill-opacity:1;fill-rule:evenodd;stroke:#e6e6e6;stroke-width:0.1;stroke-opacity:1"
       d="m 112,10 c 0,3.3137 -2.686,6 -6,6 -3.314,0 -6,-2.6863 -6,-6 0,-3.31367 2.686,-6 6,-6 3.314,0 6,2.68633 6,6" /><path
       inkscape:connector-curvature="0"
       id="path1598"
       style="fill:#e6e6e6;fill-opacity:1;stroke:#e6e6e6;stroke-width:0.97500002;stroke-linecap:round;stroke-linejoin:miter;stroke-miterlimit:6;stroke-dasharray:none;stroke-opacity:1"
       d="m 112,10 c 0,3.3137 -2.686,6 -6,6 -3.314,0 -6,-2.6863 -6,-6 0,-3.31367 2.686,-6 6,-6 3.314,0 6,2.68633 6,6" /><path
       inkscape:connector-curvature="0"
       id="path1600"
       style="fill:none;stroke:#e6e6e6;stroke-width:0.97500002;stroke-linecap:round;stroke-linejoin:miter;stroke-miterlimit:6;stroke-dasharray:none;stroke-opacity:1"
       d="m 256,58 c 0,3.3137 -2.686,6 -6,6 -3.314,0 -6,-2.6863 -6,-6 0,-3.3137 2.686,-6 6,-6 3.314,0 6,2.6863 6,6" /><path
       inkscape:connector-curvature="0"
       id="path1602"
       style="fill:#e6e6e6;fill-opacity:1;fill-rule:evenodd;stroke:#e6e6e6;stroke-width:0.1;stroke-opacity:1"
       d="m 232,58 c 0,3.3137 -2.686,6 -6,6 -3.314,0 -6,-2.6863 -6,-6 0,-3.3137 2.686,-6 6,-6 3.314,0 6,2.6863 6,6" /><path
       inkscape:connector-curvature="0"
       id="path1604"
       style="fill:#e6e6e6;fill-opacity:1;stroke:#e6e6e6;stroke-width:0.97500002;stroke-linecap:round;stroke-linejoin:miter;stroke-miterlimit:6;stroke-dasharray:none;stroke-opacity:1"
       d="m 232,58 c 0,3.3137 -2.686,6 -6,6 -3.314,0 -6,-2.6863 -6,-6 0,-3.3137 2.686,-6 6,-6 3.314,0 6,2.6863 6,6" /><path
       inkscape:connector-curvature="0"
       id="path1606"
       style="fill:#e6e6e6;fill-opacity:1;fill-rule:evenodd;stroke:#e6e6e6;stroke-width:0.1;stroke-opacity:1"
       d="m 208,58 c 0,3.3137 -2.686,6 -6,6 -3.314,0 -6,-2.6863 -6,-6 0,-3.3137 2.686,-6 6,-6 3.314,0 6,2.6863 6,6" /><path
       inkscape:connector-curvature="0"
       id="path1608"
       style="fill:#e6e6e6;fill-opacity:1;stroke:#e6e6e6;stroke-width:0.97500002;stroke-linecap:round;stroke-linejoin:miter;stroke-miterlimit:6;stroke-dasharray:none;stroke-opacity:1"
       d="m 208,58 c 0,3.3137 -2.686,6 -6,6 -3.314,0 -6,-2.6863 -6,-6 0,-3.3137 2.686,-6 6,-6 3.314,0 6,2.6863 6,6" /><path
       inkscape:connector-curvature="0"
       id="path1610"
       style="fill:none;stroke:#e6e6e6;stroke-width:0.97500002;stroke-linecap:round;stroke-linejoin:miter;stroke-miterlimit:6;stroke-dasharray:none;stroke-opacity:1"
       d="M 250,34 H 202" /><path
       inkscape:connector-curvature="0"
       id="path1612"
       style="fill:#e6e6e6;fill-opacity:1;fill-rule:evenodd;stroke:#e6e6e6;stroke-width:0.1;stroke-opacity:1"
       d="m 245.5,31 c 3.75,1.875 4.875,1.875 10.5,3 -5.625,1.125 -6.75,1.125 -10.5,3 0.75,-2.25 0.75,-3.75 0,-6" /><path
       inkscape:connector-curvature="0"
       id="path1614"
       style="fill:#e6e6e6;fill-opacity:1;fill-rule:evenodd;stroke:#e6e6e6;stroke-width:0.1;stroke-opacity:1"
       d="m 256,10 c 0,3.3137 -2.686,6 -6,6 -3.314,0 -6,-2.6863 -6,-6 0,-3.31367 2.686,-6 6,-6 3.314,0 6,2.68633 6,6" /><path
       inkscape:connector-curvature="0"
       id="path1616"
       style="fill:#e6e6e6;fill-opacity:1;stroke:#e6e6e6;stroke-width:0.97500002;stroke-linecap:round;stroke-linejoin:miter;stroke-miterlimit:6;stroke-dasharray:none;stroke-opacity:1"
       d="m 256,10 c 0,3.3137 -2.686,6 -6,6 -3.314,0 -6,-2.6863 -6,-6 0,-3.31367 2.686,-6 6,-6 3.314,0 6,2.68633 6,6" /><path
       inkscape:connector-curvature="0"
       id="path1618"
       style="fill:#e6e6e6;fill-opacity:1;fill-rule:evenodd;stroke:#e6e6e6;stroke-width:0.1;stroke-opacity:1"
       d="m 232,10 c 0,3.3137 -2.686,6 -6,6 -3.314,0 -6,-2.6863 -6,-6 0,-3.31367 2.686,-6 6,-6 3.314,0 6,2.68633 6,6" /><path
       inkscape:connector-curvature="0"
       id="path1620"
       style="fill:#e6e6e6;fill-opacity:1;stroke:#e6e6e6;stroke-width:0.97500002;stroke-linecap:round;stroke-linejoin:miter;stroke-miterlimit:6;stroke-dasharray:none;stroke-opacity:1"
       d="m 232,10 c 0,3.3137 -2.686,6 -6,6 -3.314,0 -6,-2.6863 -6,-6 0,-3.31367 2.686,-6 6,-6 3.314,0 6,2.68633 6,6" /><path
       inkscape:connector-curvature="0"
       id="path1622"
       style="fill:#e6e6e6;fill-opacity:1;fill-rule:evenodd;stroke:#e6e6e6;stroke-width:0.1;stroke-opacity:1"
       d="m 208,10 c 0,3.3137 -2.686,6 -6,6 -3.314,0 -6,-2.6863 -6,-6 0,-3.31367 2.686,-6 6,-6 3.314,0 6,2.68633 6,6" /><path
       inkscape:connector-curvature="0"
       id="path1624"
       style="fill:#e6e6e6;fill-opacity:1;stroke:#e6e6e6;stroke-width:0.97500002;stroke-linecap:round;stroke-linejoin:miter;stroke-miterlimit:6;stroke-dasharray:none;stroke-opacity:1"
       d="m 208,10 c 0,3.3137 -2.686,6 -6,6 -3.314,0 -6,-2.6863 -6,-6 0,-3.31367 2.686,-6 6,-6 3.314,0 6,2.68633 6,6" /><text
       transform="scale(1,-1)"
       style="font-variant:normal;font-weight:normal;font-size:15px;font-family:'Times New Roman';-inkscape-font-specification:Times-Roman;writing-mode:lr-tb;fill:#e6e6e6;fill-opacity:1;fill-rule:nonzero;stroke:#e6e6e6;stroke-opacity:1"
       id="text1632"
       x="9.7296896"
       y="-184"><tspan
         x="9.7296896 105.72969 110.72469 201.72969 206.72469 211.7197"
         y="-184"
         sodipodi:role="line"
         id="tspan1628">IIIIII</tspan><tspan
         x="9.7296896 14.724689 105.76089 201.76089 212.5909"
         y="-76"
         sodipodi:role="line"
         id="tspan1630">IVVVI</tspan></text>
</g></svg>