<?xml version="1.0" encoding="UTF-8" standalone="no"?>
<!-- Created with Inkscape (http://www.inkscape.org/) -->

<svg
   xmlns:dc="http://purl.org/dc/elements/1.1/"
   xmlns:cc="http://creativecommons.org/ns#"
   xmlns:rdf="http://www.w3.org/1999/02/22-rdf-syntax-ns#"
   xmlns:svg="http://www.w3.org/2000/svg"
   xmlns="http://www.w3.org/2000/svg"
   xmlns:sodipodi="http://sodipodi.sourceforge.net/DTD/sodipodi-0.dtd"
   xmlns:inkscape="http://www.inkscape.org/namespaces/inkscape"
   version="1.1"
   id="svg2"
   xml:space="preserve"
   width="834.66669"
   height="586.66669"
   viewBox="0 0 834.66669 586.66669"
   sodipodi:docname="software_escenario_2.svg"
   inkscape:export-filename="/home/cancerbero/data/tesis/presentacion/presentacion-tesis/images/software_escenario_2.png"
   inkscape:export-xdpi="200"
   inkscape:export-ydpi="200"
   inkscape:version="0.92.4 (5da689c313, 2019-01-14)"><metadata
     id="metadata8"><rdf:RDF><cc:Work
         rdf:about=""><dc:format>image/svg+xml</dc:format><dc:type
           rdf:resource="http://purl.org/dc/dcmitype/StillImage" /><dc:title></dc:title></cc:Work></rdf:RDF></metadata><defs
     id="defs6" /><sodipodi:namedview
     pagecolor="#444446"
     bordercolor="#666666"
     borderopacity="1"
     objecttolerance="10"
     gridtolerance="10"
     guidetolerance="10"
     inkscape:pageopacity="0"
     inkscape:pageshadow="2"
     inkscape:window-width="1916"
     inkscape:window-height="1041"
     id="namedview4"
     showgrid="false"
     inkscape:zoom="1.1377991"
     inkscape:cx="368.03931"
     inkscape:cy="348.81534"
     inkscape:window-x="0"
     inkscape:window-y="18"
     inkscape:window-maximized="0"
     inkscape:current-layer="g10" /><g
     id="g10"
     inkscape:groupmode="layer"
     inkscape:label="ink_ext_XXXXXX"
     transform="matrix(1.3333333,0,0,-1.3333333,0,586.66667)"><path
       inkscape:connector-curvature="0"
       id="path14"
       style="fill:none;stroke:#ffffff;stroke-width:0.97500002;stroke-linecap:round;stroke-linejoin:bevel;stroke-miterlimit:6;stroke-dasharray:none;stroke-opacity:1"
       d="M 4,232 H 472 V 436 H 4 Z" /><path
       inkscape:connector-curvature="0"
       id="path16"
       style="fill:none;stroke:#ffffff;stroke-width:0.97500002;stroke-linecap:round;stroke-linejoin:bevel;stroke-miterlimit:6;stroke-dasharray:none;stroke-opacity:1"
       d="M 256,4 H 622 V 220 H 256 Z" /><path
       inkscape:connector-curvature="0"
       id="path18"
       style="fill:none;stroke:#ffffff;stroke-width:0.97500002;stroke-linecap:round;stroke-linejoin:bevel;stroke-miterlimit:6;stroke-dasharray:none;stroke-opacity:1"
       d="m 316,340 h 144 v 84 H 316 Z" /><path
       inkscape:connector-curvature="0"
       id="path20"
       style="fill:none;stroke:#ffffff;stroke-width:0.97500002;stroke-linecap:round;stroke-linejoin:bevel;stroke-miterlimit:6;stroke-dasharray:none;stroke-opacity:1"
       d="M 10,244 H 160 V 352 H 10 Z" /><text
       transform="scale(1,-1)"
       style="font-variant:normal;font-weight:normal;font-size:15px;font-family:Helvetica;-inkscape-font-specification:Helvetica;writing-mode:lr-tb;fill:#e6e6e6;fill-opacity:1;fill-rule:nonzero;stroke:none;stroke-opacity:1;"
       id="text32"
       x="267.28101"
       y="-196"><tspan
         x="267.28101 277.28601 280.616 288.116 292.28601 300.62601 313.121 321.461 325.63101 333.97101 346.466 354.806 363.146 371.48599 374.81601 383.15601"
         y="-196"
         sodipodi:role="line"
         id="tspan24">Sistema embebido</tspan><tspan
         x="327.54971 337.55469 340.8847 348.3847 356.7247 365.0647 368.39471 371.7247 379.2247 387.5647 395.90469 404.24469"
         y="-406"
         sodipodi:role="line"
         id="tspan26">Visualizador</tspan><tspan
         x="15.280695 26.110697 34.450691 42.790703 46.960701 51.955696 60.295692"
         y="-262"
         sodipodi:role="line"
         id="tspan28">Control</tspan><tspan
         x="26.966593 31.961603 40.301598 52.796593 61.136604 65.306602"
         y="-250"
         sodipodi:role="line"
         id="tspan30">remoto</tspan></text>
<text
       transform="scale(1,-1)"
       style="font-variant:normal;font-weight:normal;font-size:9px;font-family:Helvetica;-inkscape-font-specification:Helvetica;writing-mode:lr-tb;fill:#e6e6e6;fill-opacity:1;fill-rule:nonzero;stroke:none;stroke-opacity:1;"
       id="text36"
       x="165.3226"
       y="-340"><tspan
         x="165.3226 172.8196 177.3196 182.32359 185.3206 191.8186 196.8226 201.8266 206.8306 209.3326 215.8306 220.83459 225.83859 228.34061 230.33859 235.34259 240.3466 243.3436 248.3476 250.84959 252.8476 257.85159 262.85559 265.3576 267.85959 273.86261 278.86661 283.36661 285.36459 290.36859 295.37259 300.37659"
         y="-340"
         sodipodi:role="line"
         id="tspan34">Msg(RobotConfiguration, Payload)</tspan></text>
<path
       inkscape:connector-curvature="0"
       id="path38"
       style="fill:none;stroke:#ffffff;stroke-width:0.97500002;stroke-linecap:round;stroke-linejoin:bevel;stroke-miterlimit:6;stroke-dasharray:none;stroke-opacity:1"
       d="m 10,328 h 150 v 24 H 10 Z" /><text
       transform="scale(1,-1)"
       style="font-variant:normal;font-weight:normal;font-size:9px;font-family:Helvetica;-inkscape-font-specification:Helvetica;writing-mode:lr-tb;fill:#e6e6e6;fill-opacity:1;fill-rule:nonzero;stroke:none;stroke-opacity:1;"
       id="text46"
       x="15.7469"
       y="-334"><tspan
         x="15.7469 21.245899 28.742901 35.7449 38.246899 44.7449 49.748898 54.752899 59.756897 62.2589 68.756897 73.760902 78.7649 81.266899 83.2649 88.268906 93.272903 96.269905 101.2739 103.7759 105.7739 110.7779 115.78191 118.28391 124.2869 130.7849"
         y="-334"
         sodipodi:role="line"
         id="tspan42">ZMQ RobotConfiguration PUB</tspan><tspan
         x="333.74689 339.24588 346.74289 353.74487 356.24689 362.74487 367.7489 372.7529 377.7569 380.25888 386.7569 391.76089 396.76489 399.26688 401.26489 406.26889 411.27289 414.2699 419.2739 421.77588 423.7739 428.77789 433.78189 436.28387 442.2869 448.78488"
         y="-346"
         sodipodi:role="line"
         id="tspan44">ZMQ RobotConfiguration SUB</tspan></text>
<path
       inkscape:connector-curvature="0"
       id="path48"
       style="fill:none;stroke:#ffffff;stroke-width:0.97500002;stroke-linecap:round;stroke-linejoin:bevel;stroke-miterlimit:6;stroke-dasharray:none;stroke-opacity:1"
       d="m 316,340 h 144 v 24 H 316 Z" /><path
       inkscape:connector-curvature="0"
       id="path50"
       style="fill:none;stroke:#ffffff;stroke-width:0.97500002;stroke-linecap:round;stroke-linejoin:bevel;stroke-miterlimit:6;stroke-dasharray:none;stroke-opacity:1"
       d="m 316,352 h -6 V 334 H 160" /><path
       inkscape:connector-curvature="0"
       id="path52"
       style="fill:none;stroke:#ffffff;stroke-width:0.97500002;stroke-linecap:round;stroke-linejoin:bevel;stroke-miterlimit:6;stroke-dasharray:none;stroke-opacity:1"
       d="M 208,160 V 334" /><g
       id="g54"
       style="fill:#e6e6e6;fill-opacity:1"><text
         id="text58"
         style="font-variant:normal;font-weight:normal;font-size:15px;font-family:Helvetica;-inkscape-font-specification:Helvetica;writing-mode:lr-tb;fill:#e6e6e6;fill-opacity:1;fill-rule:nonzero;stroke:none"
         transform="matrix(1,0,0,-1,14.6375,412)"><tspan
           id="tspan56"
           sodipodi:role="line"
           y="0"
           x="0 10.005">PC</tspan></text>
</g><path
       inkscape:connector-curvature="0"
       id="path60"
       style="fill:none;stroke:#000000;stroke-width:0.97500002;stroke-linecap:round;stroke-linejoin:bevel;stroke-miterlimit:6;stroke-dasharray:none;stroke-opacity:1"
       d="m 268,148 h 150 v 24 H 268 Z" /><path
       inkscape:connector-curvature="0"
       id="path62"
       style="fill:none;fill-opacity:1;fill-rule:evenodd;stroke:none;stroke-width:0.1"
       d="M 268,64 H 418 V 172 H 268 Z" /><path
       inkscape:connector-curvature="0"
       id="path64"
       style="fill:none;stroke:#ffffff;stroke-width:0.97500002;stroke-linecap:round;stroke-linejoin:bevel;stroke-miterlimit:6;stroke-dasharray:none;stroke-opacity:1"
       d="M 268,64 H 418 V 172 H 268 Z" /><text
       transform="scale(1,-1)"
       style="font-variant:normal;font-weight:normal;font-size:9px;font-family:Helvetica;-inkscape-font-specification:Helvetica;writing-mode:lr-tb;fill:#e6e6e6;fill-opacity:1;fill-rule:nonzero;stroke:none;stroke-opacity:1;"
       id="text70"
       x="285.74701"
       y="-154"><tspan
         x="285.74701 291.246 298.74301 305.745 308.24701 314.745 319.74899 324.75299 329.75699 332.259 338.75699 343.76099 348.76501 351.267 353.26498 358.26901 363.27301 366.26999 371.27399 373.776 375.77399 380.77798 385.78201 388.284 394.28699 400.785"
         y="-154"
         sodipodi:role="line"
         id="tspan68">ZMQ RobotConfiguration SUB</tspan></text>
<path
       inkscape:connector-curvature="0"
       id="path72"
       style="fill:none;stroke:#ffffff;stroke-width:0.97500002;stroke-linecap:round;stroke-linejoin:bevel;stroke-miterlimit:6;stroke-dasharray:none;stroke-opacity:1"
       d="M 268,160 H 208" /><text
       transform="scale(1,-1)"
       style="font-variant:normal;font-weight:normal;font-size:15px;font-family:Helvetica;-inkscape-font-specification:Helvetica;writing-mode:lr-tb;fill:#e6e6e6;fill-opacity:1;fill-rule:nonzero;stroke:none;stroke-opacity:1;"
       id="text80"
       x="279.341"
       y="-88"><tspan
         x="279.341 291.01099 299.35101 307.69101 316.03101 321.026 329.366 337.70599 346.04599 351.04099 355.211 363.55099"
         y="-88"
         sodipodi:role="line"
         id="tspan76">Generador de</tspan><tspan
         x="333.3707 341.71069 350.05069 358.39069 366.73071 370.0607 378.4007"
         y="-70"
         sodipodi:role="line"
         id="tspan78">angulos</tspan></text>
<path
       inkscape:connector-curvature="0"
       id="path82"
       style="fill:none;stroke:#ffffff;stroke-width:0.97500002;stroke-linecap:round;stroke-linejoin:bevel;stroke-miterlimit:6;stroke-dasharray:none;stroke-opacity:1"
       d="M 460,16 H 610 V 88 H 460 Z" /><text
       transform="scale(1,-1)"
       style="font-variant:normal;font-weight:normal;font-size:15px;font-family:Helvetica;-inkscape-font-specification:Helvetica;writing-mode:lr-tb;fill:#e6e6e6;fill-opacity:1;fill-rule:nonzero;stroke:none;stroke-opacity:1;"
       id="text88"
       x="500.65201"
       y="-34"><tspan
         x="500.65201 510.65701 513.987 522.32703 529.82703 538.16699 542.33698 550.677"
         y="-34"
         sodipodi:role="line"
         id="tspan86">Ejecutor</tspan></text>
<text
       transform="scale(1,-1)"
       style="font-variant:normal;font-weight:normal;font-size:9px;font-family:Helvetica;-inkscape-font-specification:Helvetica;writing-mode:lr-tb;fill:#e6e6e6;fill-opacity:1;fill-rule:nonzero;stroke:none;stroke-opacity:1;"
       id="text92"
       x="81.315002"
       y="-160"><tspan
         x="81.315002 87.813004 92.817001 95.319 101.817 106.821 109.818"
         y="-160"
         sodipodi:role="line"
         id="tspan90">Network</tspan></text>
<path
       inkscape:connector-curvature="0"
       id="path94"
       style="fill:none;stroke:#ffffff;stroke-width:0.97500002;stroke-linecap:round;stroke-linejoin:bevel;stroke-miterlimit:6;stroke-dasharray:none;stroke-opacity:1"
       d="m 106,154 c 6,0 -6,-30 102,24" /><path
       inkscape:connector-curvature="0"
       id="path96"
       style="fill:#ffffff;fill-opacity:1;fill-rule:evenodd;stroke:none;stroke-width:0.1"
       d="m 201.57225,171.0842 c 2.31,3.499 3.284,4.061 7.593,7.848 -5.434,-1.838 -6.408,-2.401 -10.593,-2.652 1.774,-1.573 2.524,-2.873 3,-5.196" /><g
       id="g98"
       style="fill:#e6e6e6;fill-opacity:1"><text
         id="text102"
         style="font-variant:normal;font-weight:normal;font-size:9px;font-family:Helvetica;-inkscape-font-specification:Helvetica;writing-mode:lr-tb;fill:#e6e6e6;fill-opacity:1;fill-rule:nonzero;stroke:none"
         transform="matrix(1,0,0,-1,153.567,400)"><tspan
           id="tspan100"
           sodipodi:role="line"
           y="0"
           x="0 6.4980001 11.502 18.999001 24.003 29.007 31.004999 35.505001 40.508999 45.008999 47.007 52.011002 57.014999 59.516998 61.514999 66.518997 69.021004 74.025002 77.022003 82.026001">Comunicacion interna</tspan></text>
</g><path
       inkscape:connector-curvature="0"
       id="path104"
       style="fill:#ffffff;fill-opacity:1;fill-rule:evenodd;stroke:none;stroke-width:0.1"
       d="m 240.24941,360.66685 c 2.781,-3.137 3.072,-4.224 5.615,-9.366 -0.369,5.725 -0.661,6.811 0.18,10.919 -1.979,-1.307 -3.428,-1.695 -5.795,-1.553" /><path
       inkscape:connector-curvature="0"
       id="path106"
       style="fill:none;stroke:#ffffff;stroke-width:0.97500002;stroke-linecap:round;stroke-linejoin:bevel;stroke-miterlimit:6;stroke-dasharray:none;stroke-opacity:1"
       d="m 172,394 c 0,-18 54,0 72,-36" /><path
       inkscape:connector-curvature="0"
       id="path108"
       style="fill:none;stroke:#ffffff;stroke-width:0.97500002;stroke-linecap:round;stroke-linejoin:bevel;stroke-miterlimit:6;stroke-dasharray:none;stroke-opacity:1"
       d="m 268,124 h 150 v 24 H 268 Z" /><text
       transform="scale(1,-1)"
       style="font-variant:normal;font-weight:normal;font-size:9px;font-family:Helvetica;-inkscape-font-specification:Helvetica;writing-mode:lr-tb;fill:#e6e6e6;fill-opacity:1;fill-rule:nonzero;stroke:none;stroke-opacity:1;"
       id="text114"
       x="285.74701"
       y="-130"><tspan
         x="285.74701 291.246 298.74301 305.745 308.24701 314.25 319.254 324.258 326.25601 331.26001 335.76001 338.26199 344.26501 350.763"
         y="-130"
         sodipodi:role="line"
         id="tspan112">ZMQ Angles PUB</tspan></text>
<path
       inkscape:connector-curvature="0"
       id="path116"
       style="fill:none;stroke:#ffffff;stroke-width:0.97500002;stroke-linecap:round;stroke-linejoin:bevel;stroke-miterlimit:6;stroke-dasharray:none;stroke-opacity:1"
       d="M 460,64 H 610 V 88 H 460 Z" /><text
       transform="scale(1,-1)"
       style="font-variant:normal;font-weight:normal;font-size:9px;font-family:Helvetica;-inkscape-font-specification:Helvetica;writing-mode:lr-tb;fill:#e6e6e6;fill-opacity:1;fill-rule:nonzero;stroke:none;stroke-opacity:1;"
       id="text122"
       x="477.74701"
       y="-70"><tspan
         x="477.74701 483.246 490.74301 497.745 500.24701 506.25 511.254 516.258 518.25598 523.26001 527.76001 530.26202 536.26501 542.763"
         y="-70"
         sodipodi:role="line"
         id="tspan120">ZMQ Angles SUB</tspan></text>
<path
       inkscape:connector-curvature="0"
       id="path124"
       style="fill:none;stroke:#ffffff;stroke-width:0.97500002;stroke-linecap:round;stroke-linejoin:bevel;stroke-miterlimit:6;stroke-dasharray:none;stroke-opacity:1"
       d="m 460,76 h -24 v 60 h -18" /><path
       inkscape:connector-curvature="0"
       id="path126"
       style="fill:#000000;fill-opacity:1;fill-rule:evenodd;stroke:none;stroke-width:0.1"
       d="m 406,124 h 12 v 24 h -12 z" /><path
       inkscape:connector-curvature="0"
       id="path128"
       style="fill:#e6e6e6;stroke:#e6e6e6;stroke-width:0.97500002;stroke-linecap:round;stroke-linejoin:bevel;stroke-miterlimit:6;stroke-dasharray:none;stroke-opacity:1;fill-opacity:1"
       d="m 406,124 h 12 v 24 h -12 z" /><path
       inkscape:connector-curvature="0"
       id="path130"
       style="fill:#000000;fill-opacity:1;fill-rule:evenodd;stroke:none;stroke-width:0.1"
       d="m 460,64 h 12 v 24 h -12 z" /><path
       inkscape:connector-curvature="0"
       id="path132"
       style="fill:#e6e6e6;stroke:#e6e6e6;stroke-width:0.97500002;stroke-linecap:round;stroke-linejoin:bevel;stroke-miterlimit:6;stroke-dasharray:none;stroke-opacity:1;fill-opacity:1"
       d="m 460,64 h 12 v 24 h -12 z" /><path
       inkscape:connector-curvature="0"
       id="path134"
       style="fill:#000000;fill-opacity:1;fill-rule:evenodd;stroke:none;stroke-width:0.1"
       d="m 268,148 h 12 v 24 h -12 z" /><path
       inkscape:connector-curvature="0"
       id="path136"
       style="fill:#e6e6e6;stroke:#e6e6e6;stroke-width:0.97500002;stroke-linecap:round;stroke-linejoin:bevel;stroke-miterlimit:6;stroke-dasharray:none;stroke-opacity:1;fill-opacity:1"
       d="m 268,148 h 12 v 24 h -12 z" /><path
       inkscape:connector-curvature="0"
       id="path138"
       style="fill:#000000;fill-opacity:1;fill-rule:evenodd;stroke:none;stroke-width:0.1"
       d="m 148,328 h 12 v 24 h -12 z" /><path
       inkscape:connector-curvature="0"
       id="path140"
       style="fill:#e6e6e6;stroke:#e6e6e6;stroke-width:0.97500002;stroke-linecap:round;stroke-linejoin:bevel;stroke-miterlimit:6;stroke-dasharray:none;stroke-opacity:1;fill-opacity:1"
       d="m 148,328 h 12 v 24 h -12 z" /><path
       inkscape:connector-curvature="0"
       id="path142"
       style="fill:#000000;fill-opacity:1;fill-rule:evenodd;stroke:none;stroke-width:0.1"
       d="m 316,340 h 12 v 24 h -12 z" /><path
       inkscape:connector-curvature="0"
       id="path144"
       style="fill:#e6e6e6;stroke:#e6e6e6;stroke-width:0.97500002;stroke-linecap:round;stroke-linejoin:bevel;stroke-miterlimit:6;stroke-dasharray:none;stroke-opacity:1;fill-opacity:1"
       d="m 316,340 h 12 v 24 h -12 z" /></g></svg>