<?xml version="1.0" encoding="UTF-8" standalone="no"?>
<!-- Created with Inkscape (http://www.inkscape.org/) -->

<svg
   xmlns:dc="http://purl.org/dc/elements/1.1/"
   xmlns:cc="http://creativecommons.org/ns#"
   xmlns:rdf="http://www.w3.org/1999/02/22-rdf-syntax-ns#"
   xmlns:svg="http://www.w3.org/2000/svg"
   xmlns="http://www.w3.org/2000/svg"
   xmlns:sodipodi="http://sodipodi.sourceforge.net/DTD/sodipodi-0.dtd"
   xmlns:inkscape="http://www.inkscape.org/namespaces/inkscape"
   version="1.1"
   id="svg2"
   xml:space="preserve"
   width="635.29999"
   height="283.29999"
   viewBox="0 0 635.29999 283.29999"
   sodipodi:docname="software_escenario_1.svg"
   inkscape:export-filename="/home/cancerbero/data/tesis/presentacion/presentacion-tesis/images/software_escenario_1.png"
   inkscape:export-xdpi="200"
   inkscape:export-ydpi="200"
   inkscape:version="0.92.4 (5da689c313, 2019-01-14)"><metadata
     id="metadata8"><rdf:RDF><cc:Work
         rdf:about=""><dc:format>image/svg+xml</dc:format><dc:type
           rdf:resource="http://purl.org/dc/dcmitype/StillImage" /><dc:title></dc:title></cc:Work></rdf:RDF></metadata><defs
     id="defs6" /><sodipodi:namedview
     pagecolor="#50585d"
     bordercolor="#666666"
     borderopacity="1"
     objecttolerance="10"
     gridtolerance="10"
     guidetolerance="10"
     inkscape:pageopacity="0"
     inkscape:pageshadow="2"
     inkscape:window-width="1916"
     inkscape:window-height="1041"
     id="namedview4"
     showgrid="false"
     fit-margin-left="5"
     fit-margin-right="5"
     fit-margin-bottom="5"
     fit-margin-top="5"
     inkscape:zoom="1.6310992"
     inkscape:cx="239.18306"
     inkscape:cy="104.43166"
     inkscape:window-x="0"
     inkscape:window-y="18"
     inkscape:window-maximized="0"
     inkscape:current-layer="g10" /><g
     id="g10"
     inkscape:groupmode="layer"
     inkscape:label="ink_ext_XXXXXX"
     transform="matrix(1.3333333,0,0,-1.3333333,0.3166668,282.98333)"><path
       inkscape:connector-curvature="0"
       id="path14"
       style="fill:none;stroke:#fffffe;stroke-width:0.97500002;stroke-linecap:round;stroke-linejoin:bevel;stroke-miterlimit:6;stroke-dasharray:none;stroke-opacity:1"
       d="M 4,4 H 472 V 208 H 4 Z" /><path
       inkscape:connector-curvature="0"
       id="path16"
       style="fill:none;fill-opacity:1;fill-rule:evenodd;stroke:none;stroke-width:0.1"
       d="m 316,112 h 144 v 84 H 316 Z" /><path
       inkscape:connector-curvature="0"
       id="path18"
       style="fill:none;stroke:#fffffe;stroke-width:0.97500002;stroke-linecap:round;stroke-linejoin:bevel;stroke-miterlimit:6;stroke-dasharray:none;stroke-opacity:1"
       d="m 316,112 h 144 v 84 H 316 Z" /><path
       inkscape:connector-curvature="0"
       id="path20"
       style="fill:none;stroke:#fffffe;stroke-width:0.97500002;stroke-linecap:round;stroke-linejoin:bevel;stroke-miterlimit:6;stroke-dasharray:none;stroke-opacity:1"
       d="M 10,16 H 160 V 124 H 10 Z" /><text
       transform="scale(1,-1)"
       style="font-variant:normal;font-weight:normal;font-size:15px;font-family:Helvetica;-inkscape-font-specification:Helvetica;writing-mode:lr-tb;fill:#e6e6e6;fill-opacity:1;fill-rule:nonzero;stroke:none"
       id="text30"
       x="327.54999"
       y="-178"><tspan
         x="327.54999 337.55499 340.88501 348.38501 356.72501 365.065 368.39499 371.72501 379.22501 387.565 395.905 404.245"
         y="-178"
         sodipodi:role="line"
         id="tspan24">Visualizador</tspan><tspan
         x="15.340985 27.010998 35.350994 43.69099 52.030987 57.026012 65.366013 73.706009 82.046005 87.041 91.210999 99.55101"
         y="-46"
         sodipodi:role="line"
         id="tspan26">Generador de</tspan><tspan
         x="38.951885 51.446911 59.786907 67.286911 70.616898 83.111908 86.44191 94.781906 103.1219 107.2919"
         y="-28"
         sodipodi:role="line"
         id="tspan28">movimiento</tspan></text>
<text
       transform="scale(1,-1)"
       style="font-variant:normal;font-weight:normal;font-size:9px;font-family:Helvetica;-inkscape-font-specification:Helvetica;writing-mode:lr-tb;fill:#e6e6e6;fill-opacity:1;fill-rule:nonzero;stroke:none"
       id="text34"
       x="165.3239"
       y="-112"><tspan
         x="165.3239 172.82091 177.32089 182.32491 185.3219 191.8199 196.8239 201.8279 206.83189 209.33389 215.83189 220.83591 225.8399 228.3419 230.3399 235.3439 240.3479 243.34491 248.34891 250.85091 252.84891 257.85291 262.8569 265.35892 267.8609 273.86389 278.86789 283.36789 285.36591 290.3699 295.3739 300.3779"
         y="-112"
         sodipodi:role="line"
         id="tspan32">Msg(RobotConfiguration, Payload)</tspan></text>
<path
       inkscape:connector-curvature="0"
       id="path36"
       style="fill:none;stroke:#fffffe;stroke-width:0.97500002;stroke-linecap:round;stroke-linejoin:bevel;stroke-miterlimit:6;stroke-dasharray:none;stroke-opacity:1"
       d="m 10,100 h 150 v 24 H 10 Z" /><text
       transform="scale(1,-1)"
       style="font-variant:normal;font-weight:normal;font-size:9px;font-family:Helvetica;-inkscape-font-specification:Helvetica;writing-mode:lr-tb;fill:#e6e6e6;fill-opacity:1;fill-rule:nonzero;stroke:none"
       id="text44"
       x="15.7469"
       y="-106"><tspan
         x="15.7469 21.245899 28.742901 35.7449 38.246899 44.7449 49.748898 54.752899 59.756897 62.2589 68.756897 73.760902 78.7649 81.266899 83.2649 88.268906 93.272903 96.269905 101.2739 103.7759 105.7739 110.7779 115.78191 118.28391 124.2869 130.7849"
         y="-106"
         sodipodi:role="line"
         id="tspan40">ZMQ RobotConfiguration PUB</tspan><tspan
         x="333.74689 339.24588 346.74289 353.74487 356.24689 362.74487 367.7489 372.7529 377.7569 380.25888 386.7569 391.76089 396.76489 399.26688 401.26489 406.26889 411.27289 414.2699 419.2739 421.77588 423.7739 428.77789 433.78189 436.28387 442.2869 448.78488"
         y="-118"
         sodipodi:role="line"
         id="tspan42">ZMQ RobotConfiguration SUB</tspan></text>
<path
       inkscape:connector-curvature="0"
       id="path46"
       style="fill:none;stroke:#fffffe;stroke-width:0.97500002;stroke-linecap:round;stroke-linejoin:bevel;stroke-miterlimit:6;stroke-dasharray:none;stroke-opacity:1"
       d="m 316,112 h 144 v 24 H 316 Z" /><path
       inkscape:connector-curvature="0"
       id="path48"
       style="fill:none;stroke:#e6e6e6;stroke-width:0.97500002;stroke-linecap:round;stroke-linejoin:bevel;stroke-miterlimit:6;stroke-dasharray:none;stroke-opacity:1"
       d="m 316,124 h -6 V 106 H 160" /><text
       transform="scale(1,-1)"
       style="font-variant:normal;font-weight:normal;font-size:15px;font-family:Helvetica;-inkscape-font-specification:Helvetica;writing-mode:lr-tb;fill:#e6e6e6;fill-opacity:1;fill-rule:nonzero;stroke:none"
       id="text54"
       x="14.6375"
       y="-184"><tspan
         x="14.6375 24.6425"
         y="-184"
         sodipodi:role="line"
         id="tspan52">PC</tspan></text>
<text
       transform="scale(1,-1)"
       style="font-variant:normal;font-weight:normal;font-size:9px;font-family:Helvetica;-inkscape-font-specification:Helvetica;writing-mode:lr-tb;fill:#e6e6e6;fill-opacity:1;fill-rule:nonzero;stroke:none"
       id="text58"
       x="153.5675"
       y="-172"><tspan
         x="153.5675 160.06551 165.0695 172.5665 177.5705 182.57449 184.57249 189.07249 194.07649 198.57649 200.57449 205.57851 210.5825 213.0845 215.0825 220.0865 222.5885 227.5925 230.58951 235.59351"
         y="-172"
         sodipodi:role="line"
         id="tspan56">Comunicacion interna</tspan></text>
<path
       inkscape:connector-curvature="0"
       id="path60"
       style="fill:#e6e6e6;fill-opacity:1;fill-rule:evenodd;stroke:none;stroke-width:0.1"
       d="m 239.84811,132.8783 c 2.781,-3.137 3.072,-4.224 5.615,-9.366 -0.369,5.725 -0.661,6.811 0.18,10.919 -1.979,-1.307 -3.428,-1.695 -5.795,-1.553" /><path
       inkscape:connector-curvature="0"
       id="path62"
       style="fill:none;stroke:#e6e6e6;stroke-width:0.97500002;stroke-linecap:round;stroke-linejoin:bevel;stroke-miterlimit:6;stroke-dasharray:none;stroke-opacity:1"
       d="m 172,166 c 0,-18 54,0 72,-36" /><path
       inkscape:connector-curvature="0"
       id="path64"
       style="fill:#e6e6e6;fill-opacity:1;fill-rule:evenodd;stroke:none;stroke-width:0.1"
       d="m 316,112 h 12 v 24 h -12 z" /><path
       inkscape:connector-curvature="0"
       id="path66"
       style="fill:none;stroke:#fffffe;stroke-width:0.97500002;stroke-linecap:round;stroke-linejoin:bevel;stroke-miterlimit:6;stroke-dasharray:none;stroke-opacity:1"
       d="m 316,112 h 12 v 24 h -12 z" /><path
       inkscape:connector-curvature="0"
       id="path68"
       style="fill:#e6e6e6;fill-opacity:1;fill-rule:evenodd;stroke:none;stroke-width:0.1"
       d="m 148,100 h 12 v 24 h -12 z" /><path
       inkscape:connector-curvature="0"
       id="path70"
       style="fill:none;stroke:#fffffe;stroke-width:0.97500002;stroke-linecap:round;stroke-linejoin:bevel;stroke-miterlimit:6;stroke-dasharray:none;stroke-opacity:1"
       d="m 148,100 h 12 v 24 h -12 z" /></g></svg>