<?xml version="1.0" encoding="UTF-8" standalone="no"?>
<!-- Created with Inkscape (http://www.inkscape.org/) -->

<svg
   xmlns:dc="http://purl.org/dc/elements/1.1/"
   xmlns:cc="http://creativecommons.org/ns#"
   xmlns:rdf="http://www.w3.org/1999/02/22-rdf-syntax-ns#"
   xmlns:svg="http://www.w3.org/2000/svg"
   xmlns="http://www.w3.org/2000/svg"
   xmlns:sodipodi="http://sodipodi.sourceforge.net/DTD/sodipodi-0.dtd"
   xmlns:inkscape="http://www.inkscape.org/namespaces/inkscape"
   version="1.1"
   id="svg2"
   xml:space="preserve"
   width="834.66669"
   height="586.66669"
   viewBox="0 0 834.66669 586.66669"
   sodipodi:docname="software_escenario_3.svg"
   inkscape:export-filename="/home/cancerbero/data/tesis/presentacion/presentacion-tesis/images/software_escenario_3.png"
   inkscape:export-xdpi="200"
   inkscape:export-ydpi="200"
   inkscape:version="0.92.4 (5da689c313, 2019-01-14)"><metadata
     id="metadata8"><rdf:RDF><cc:Work
         rdf:about=""><dc:format>image/svg+xml</dc:format><dc:type
           rdf:resource="http://purl.org/dc/dcmitype/StillImage" /><dc:title></dc:title></cc:Work></rdf:RDF></metadata><defs
     id="defs6" /><sodipodi:namedview
     pagecolor="#5d5b5b"
     bordercolor="#666666"
     borderopacity="1"
     objecttolerance="10"
     gridtolerance="10"
     guidetolerance="10"
     inkscape:pageopacity="0"
     inkscape:pageshadow="2"
     inkscape:window-width="1916"
     inkscape:window-height="1041"
     id="namedview4"
     showgrid="false"
     inkscape:zoom="1.1377991"
     inkscape:cx="369.40065"
     inkscape:cy="304.96703"
     inkscape:window-x="0"
     inkscape:window-y="18"
     inkscape:window-maximized="0"
     inkscape:current-layer="g10" /><g
     id="g10"
     inkscape:groupmode="layer"
     inkscape:label="ink_ext_XXXXXX"
     transform="matrix(1.3333333,0,0,-1.3333333,0,586.66667)"><path
       inkscape:connector-curvature="0"
       id="path14"
       style="fill:none;stroke:#e6e6e6;stroke-width:0.97500002;stroke-linecap:round;stroke-linejoin:bevel;stroke-miterlimit:6;stroke-dasharray:none;stroke-opacity:1"
       d="M 4,232 H 472 V 436 H 4 Z" /><path
       inkscape:connector-curvature="0"
       id="path16"
       style="fill:none;stroke:#e6e6e6;stroke-width:0.97500002;stroke-linecap:round;stroke-linejoin:bevel;stroke-miterlimit:6;stroke-dasharray:none;stroke-opacity:1"
       d="M 256,4 H 622 V 220 H 256 Z" /><path
       inkscape:connector-curvature="0"
       id="path18"
       style="fill:none;stroke:#e6e6e6;stroke-width:0.97500002;stroke-linecap:round;stroke-linejoin:bevel;stroke-miterlimit:6;stroke-dasharray:none;stroke-opacity:1"
       d="m 316,340 h 144 v 84 H 316 Z" /><path
       inkscape:connector-curvature="0"
       id="path20"
       style="fill:none;stroke:#e6e6e6;stroke-width:0.97500002;stroke-linecap:round;stroke-linejoin:bevel;stroke-miterlimit:6;stroke-dasharray:none;stroke-opacity:1"
       d="M 10,244 H 160 V 352 H 10 Z" /><text
       transform="scale(1,-1)"
       style="font-variant:normal;font-weight:normal;font-size:15px;font-family:Helvetica;-inkscape-font-specification:Helvetica;writing-mode:lr-tb;fill:#ffffff;fill-opacity:1;fill-rule:nonzero;stroke:none;"
       id="text30"
       x="267.28101"
       y="-196"><tspan
         x="267.28101 277.28601 280.616 288.116 292.28601 300.62601 313.121 321.461 325.63101 333.97101 346.466 354.806 363.146 371.48599 374.81601 383.15601"
         y="-196"
         sodipodi:role="line"
         id="tspan24">Sistema embebido</tspan><tspan
         x="327.54971 337.55469 340.8847 348.3847 356.7247 365.0647 368.39471 371.7247 379.2247 387.5647 395.90469 404.24469"
         y="-406"
         sodipodi:role="line"
         id="tspan26">Visualizador</tspan><tspan
         x="15.280695 26.110697 34.450691 42.790703 50.290703 58.630699 61.960701 70.300697 74.470695 82.810692 91.150703 95.320702 107.8157 115.3157"
         y="-262"
         sodipodi:role="line"
         id="tspan28">Consola de msg</tspan></text>
<text
       transform="scale(1,-1)"
       style="font-variant:normal;font-weight:normal;font-size:9px;font-family:Helvetica;-inkscape-font-specification:Helvetica;writing-mode:lr-tb;fill:#ffffff;fill-opacity:1;fill-rule:nonzero;stroke:none;"
       id="text34"
       x="165.32269"
       y="-340"><tspan
         x="165.32269 172.8197 177.3197 182.3237 185.32069 191.8187 196.82269 201.82671 206.8307 209.3327 215.8307 220.8347 225.8387 228.3407 230.3387 235.3427 240.34669 243.3437 248.3477 250.8497 252.8477 257.85168 262.85568 265.3577 267.85971 273.8627 278.8667 283.3667 285.36469 290.36868 295.37271 300.37671"
         y="-340"
         sodipodi:role="line"
         id="tspan32">Msg(RobotConfiguration, Payload)</tspan></text>
<path
       inkscape:connector-curvature="0"
       id="path36"
       style="fill:none;stroke:#e6e6e6;stroke-width:0.97500002;stroke-linecap:round;stroke-linejoin:bevel;stroke-miterlimit:6;stroke-dasharray:none;stroke-opacity:1"
       d="m 10,328 h 150 v 24 H 10 Z" /><text
       transform="scale(1,-1)"
       style="font-variant:normal;font-weight:normal;font-size:9px;font-family:Helvetica;-inkscape-font-specification:Helvetica;writing-mode:lr-tb;fill:#ffffff;fill-opacity:1;fill-rule:nonzero;stroke:none;"
       id="text44"
       x="15.7469"
       y="-334"><tspan
         x="15.7469 21.245899 28.742901 35.7449 38.246899 44.7449 49.748898 54.752899 59.756897 62.2589 68.756897 73.760902 78.7649 81.266899 83.2649 88.268906 93.272903 96.269905 101.2739 103.7759 105.7739 110.7779 115.78191 118.28391 124.2869 130.7849"
         y="-334"
         sodipodi:role="line"
         id="tspan40">ZMQ RobotConfiguration PUB</tspan><tspan
         x="333.74689 339.24588 346.74289 353.74487 356.24689 362.74487 367.7489 372.7529 377.7569 380.25888 386.7569 391.76089 396.76489 399.26688 401.26489 406.26889 411.27289 414.2699 419.2739 421.77588 423.7739 428.77789 433.78189 436.28387 442.2869 448.78488"
         y="-346"
         sodipodi:role="line"
         id="tspan42">ZMQ RobotConfiguration SUB</tspan></text>
<path
       inkscape:connector-curvature="0"
       id="path46"
       style="fill:none;stroke:#e6e6e6;stroke-width:0.97500002;stroke-linecap:round;stroke-linejoin:bevel;stroke-miterlimit:6;stroke-dasharray:none;stroke-opacity:1"
       d="m 316,340 h 144 v 24 H 316 Z" /><path
       inkscape:connector-curvature="0"
       id="path48"
       style="fill:none;stroke:#e6e6e6;stroke-width:0.97500002;stroke-linecap:round;stroke-linejoin:bevel;stroke-miterlimit:6;stroke-dasharray:none;stroke-opacity:1"
       d="m 316,352 h -6 V 334 H 160" /><text
       transform="scale(1,-1)"
       style="font-variant:normal;font-weight:normal;font-size:15px;font-family:Helvetica;-inkscape-font-specification:Helvetica;writing-mode:lr-tb;fill:#ffffff;fill-opacity:1;fill-rule:nonzero;stroke:none;"
       id="text54"
       x="14.6375"
       y="-412"><tspan
         x="14.6375 24.6425"
         y="-412"
         sodipodi:role="line"
         id="tspan52">PC</tspan></text>
<path
       inkscape:connector-curvature="0"
       id="path56"
       style="fill:none;stroke:#000000;stroke-width:0.97500002;stroke-linecap:round;stroke-linejoin:bevel;stroke-miterlimit:6;stroke-dasharray:none;stroke-opacity:1"
       d="m 268,148 h 150 v 24 H 268 Z" /><path
       inkscape:connector-curvature="0"
       id="path58"
       style="fill:none;fill-opacity:1;fill-rule:evenodd;stroke:none;stroke-width:0.1"
       d="M 268,64 H 418 V 172 H 268 Z" /><path
       inkscape:connector-curvature="0"
       id="path60"
       style="fill:none;stroke:#e6e6e6;stroke-width:0.97500002;stroke-linecap:round;stroke-linejoin:bevel;stroke-miterlimit:6;stroke-dasharray:none;stroke-opacity:1"
       d="M 268,64 H 418 V 172 H 268 Z" /><text
       transform="scale(1,-1)"
       style="font-variant:normal;font-weight:normal;font-size:9px;font-family:Helvetica;-inkscape-font-specification:Helvetica;writing-mode:lr-tb;fill:#ffffff;fill-opacity:1;fill-rule:nonzero;stroke:none;"
       id="text66"
       x="285.74701"
       y="-154"><tspan
         x="285.74701 291.246 298.74301 305.745 308.24701 314.745 319.74899 324.75299 329.75699 332.259 338.75699 343.76099 348.76501 351.267 353.26498 358.26901 363.27301 366.26999 371.27399 373.776 375.77399 380.77798 385.78201 388.284 394.28699 400.785"
         y="-154"
         sodipodi:role="line"
         id="tspan64">ZMQ RobotConfiguration SUB</tspan></text>
<path
       inkscape:connector-curvature="0"
       id="path68"
       style="fill:none;stroke:#e6e6e6;stroke-width:0.97500002;stroke-linecap:round;stroke-linejoin:bevel;stroke-miterlimit:6;stroke-dasharray:none;stroke-opacity:1"
       d="M 268,160 H 238" /><text
       transform="scale(1,-1)"
       style="font-variant:normal;font-weight:normal;font-size:15px;font-family:Helvetica;-inkscape-font-specification:Helvetica;writing-mode:lr-tb;fill:#ffffff;fill-opacity:1;fill-rule:nonzero;stroke:none;"
       id="text76"
       x="279.341"
       y="-88"><tspan
         x="279.341 291.01099 299.35101 307.69101 316.03101 321.026 329.366 337.70599 346.04599 351.04099 355.211 363.55099"
         y="-88"
         sodipodi:role="line"
         id="tspan72">Generador de</tspan><tspan
         x="333.3707 341.71069 350.05069 358.39069 366.73071 370.0607 378.4007"
         y="-70"
         sodipodi:role="line"
         id="tspan74">angulos</tspan></text>
<path
       inkscape:connector-curvature="0"
       id="path78"
       style="fill:none;stroke:#e6e6e6;stroke-width:0.97500002;stroke-linecap:round;stroke-linejoin:bevel;stroke-miterlimit:6;stroke-dasharray:none;stroke-opacity:1"
       d="M 460,16 H 610 V 88 H 460 Z" /><text
       transform="scale(1,-1)"
       style="font-variant:normal;font-weight:normal;font-size:15px;font-family:Helvetica;-inkscape-font-specification:Helvetica;writing-mode:lr-tb;fill:#ffffff;fill-opacity:1;fill-rule:nonzero;stroke:none;"
       id="text84"
       x="500.65201"
       y="-34"><tspan
         x="500.65201 510.65701 513.987 522.32703 529.82703 538.16699 542.33698 550.677"
         y="-34"
         sodipodi:role="line"
         id="tspan82">Ejecutor</tspan></text>
<text
       transform="scale(1,-1)"
       style="font-variant:normal;font-weight:normal;font-size:9px;font-family:Helvetica;-inkscape-font-specification:Helvetica;writing-mode:lr-tb;fill:#ffffff;fill-opacity:1;fill-rule:nonzero;stroke:none;"
       id="text88"
       x="81.315002"
       y="-160"><tspan
         x="81.315002 87.813004 92.817001 95.319 101.817 106.821 109.818"
         y="-160"
         sodipodi:role="line"
         id="tspan86">Network</tspan></text>
<path
       inkscape:connector-curvature="0"
       id="path90"
       style="fill:none;stroke:#e6e6e6;stroke-width:0.97500002;stroke-linecap:round;stroke-linejoin:bevel;stroke-miterlimit:6;stroke-dasharray:none;stroke-opacity:1"
       d="m 106,154 c 6,0 -6,-30 102,24" /><path
       inkscape:connector-curvature="0"
       id="path92"
       style="fill:#e6e6e6;fill-opacity:1;fill-rule:evenodd;stroke:none;stroke-width:0.1"
       d="m 200.407,170.152 c 2.31,3.499 3.284,4.061 7.593,7.848 -5.434,-1.838 -6.408,-2.401 -10.593,-2.652 1.774,-1.573 2.524,-2.873 3,-5.196" /><text
       transform="scale(1,-1)"
       style="font-variant:normal;font-weight:normal;font-size:9px;font-family:Helvetica;-inkscape-font-specification:Helvetica;writing-mode:lr-tb;fill:#ffffff;fill-opacity:1;fill-rule:nonzero;stroke:none;"
       id="text98"
       x="153.567"
       y="-400"><tspan
         x="153.567 160.065 165.069 172.56599 177.57001 182.57401 184.57201 189.07201 194.076 198.576 200.57401 205.578 210.582 213.084 215.082 220.086 222.588 227.592 230.589 235.593"
         y="-400"
         sodipodi:role="line"
         id="tspan96">Comunicacion interna</tspan></text>
<path
       inkscape:connector-curvature="0"
       id="path100"
       style="fill:#e6e6e6;fill-opacity:1;fill-rule:evenodd;stroke:none;stroke-width:0.1"
       d="m 238.385,361.366 c 2.781,-3.137 3.072,-4.224 5.615,-9.366 -0.369,5.725 -0.661,6.811 0.18,10.919 -1.979,-1.307 -3.428,-1.695 -5.795,-1.553" /><path
       inkscape:connector-curvature="0"
       id="path102"
       style="fill:none;stroke:#e6e6e6;stroke-width:0.97500002;stroke-linecap:round;stroke-linejoin:bevel;stroke-miterlimit:6;stroke-dasharray:none;stroke-opacity:1"
       d="m 172,394 c 0,-18 54,0 72,-36" /><path
       inkscape:connector-curvature="0"
       id="path104"
       style="fill:none;stroke:#e6e6e6;stroke-width:0.97500002;stroke-linecap:round;stroke-linejoin:bevel;stroke-miterlimit:6;stroke-dasharray:none;stroke-opacity:1"
       d="m 268,124 h 150 v 24 H 268 Z" /><text
       transform="scale(1,-1)"
       style="font-variant:normal;font-weight:normal;font-size:9px;font-family:Helvetica;-inkscape-font-specification:Helvetica;writing-mode:lr-tb;fill:#ffffff;fill-opacity:1;fill-rule:nonzero;stroke:none;"
       id="text110"
       x="285.74701"
       y="-130"><tspan
         x="285.74701 291.246 298.74301 305.745 308.24701 314.25 319.254 324.258 326.25601 331.26001 335.76001 338.26199 344.26501 350.763"
         y="-130"
         sodipodi:role="line"
         id="tspan108">ZMQ Angles PUB</tspan></text>
<path
       inkscape:connector-curvature="0"
       id="path112"
       style="fill:none;stroke:#e6e6e6;stroke-width:0.97500002;stroke-linecap:round;stroke-linejoin:bevel;stroke-miterlimit:6;stroke-dasharray:none;stroke-opacity:1"
       d="M 460,64 H 610 V 88 H 460 Z" /><g
       id="g114"
       style="fill:#ffffff;fill-opacity:1"><text
         id="text118"
         style="font-variant:normal;font-weight:normal;font-size:9px;font-family:Helvetica;-inkscape-font-specification:Helvetica;writing-mode:lr-tb;fill:#ffffff;fill-opacity:1;fill-rule:nonzero;stroke:none"
         transform="matrix(1,0,0,-1,477.747,70)"><tspan
           id="tspan116"
           sodipodi:role="line"
           y="0"
           x="0 5.4990001 12.996 19.997999 22.5 28.503 33.507 38.511002 40.508999 45.513 50.013 52.514999 58.518002 65.015999">ZMQ Angles SUB</tspan></text>
</g><path
       inkscape:connector-curvature="0"
       id="path120"
       style="fill:none;stroke:#e6e6e6;stroke-width:0.97500002;stroke-linecap:round;stroke-linejoin:bevel;stroke-miterlimit:6;stroke-dasharray:none;stroke-opacity:1"
       d="m 460,76 h -24 v 60 h -18" /><path
       inkscape:connector-curvature="0"
       id="path122"
       style="fill:#e6e6e6;fill-opacity:1;fill-rule:evenodd;stroke:none;stroke-width:0.1"
       d="m 406,124 h 12 v 24 h -12 z" /><path
       inkscape:connector-curvature="0"
       id="path124"
       style="fill:none;stroke:#e6e6e6;stroke-width:0.97500002;stroke-linecap:round;stroke-linejoin:bevel;stroke-miterlimit:6;stroke-dasharray:none;stroke-opacity:1"
       d="m 406,124 h 12 v 24 h -12 z" /><path
       inkscape:connector-curvature="0"
       id="path126"
       style="fill:#000000;fill-opacity:1;fill-rule:evenodd;stroke:none;stroke-width:0.1"
       d="m 460,64 h 12 v 24 h -12 z" /><path
       inkscape:connector-curvature="0"
       id="path128"
       style="fill:#e6e6e6;stroke:#e6e6e6;stroke-width:0.97500002;stroke-linecap:round;stroke-linejoin:bevel;stroke-miterlimit:6;stroke-dasharray:none;stroke-opacity:1;fill-opacity:1"
       d="m 460,64 h 12 v 24 h -12 z" /><path
       inkscape:connector-curvature="0"
       id="path130"
       style="fill:#000000;fill-opacity:1;fill-rule:evenodd;stroke:#e6e6e6;stroke-width:0.1;stroke-opacity:1"
       d="m 268,148 h 12 v 24 h -12 z" /><path
       inkscape:connector-curvature="0"
       id="path132"
       style="fill:#e6e6e6;stroke:#e6e6e6;stroke-width:0.97500002;stroke-linecap:round;stroke-linejoin:bevel;stroke-miterlimit:6;stroke-dasharray:none;stroke-opacity:1;fill-opacity:1"
       d="m 268,148 h 12 v 24 h -12 z" /><path
       inkscape:connector-curvature="0"
       id="path134"
       style="fill:#000000;fill-opacity:1;fill-rule:evenodd;stroke:none;stroke-width:0.1"
       d="m 148,328 h 12 v 24 h -12 z" /><path
       inkscape:connector-curvature="0"
       id="path136"
       style="fill:#e6e6e6;stroke:#e6e6e6;stroke-width:0.97500002;stroke-linecap:round;stroke-linejoin:bevel;stroke-miterlimit:6;stroke-dasharray:none;stroke-opacity:1;fill-opacity:1"
       d="m 148,328 h 12 v 24 h -12 z" /><path
       inkscape:connector-curvature="0"
       id="path138"
       style="fill:#000000;fill-opacity:1;fill-rule:evenodd;stroke:none;stroke-width:0.1"
       d="m 316,340 h 12 v 24 h -12 z" /><path
       inkscape:connector-curvature="0"
       id="path140"
       style="fill:#e6e6e6;stroke:#e6e6e6;stroke-width:0.97500002;stroke-linecap:round;stroke-linejoin:bevel;stroke-miterlimit:6;stroke-dasharray:none;stroke-opacity:1;fill-opacity:1"
       d="m 316,340 h 12 v 24 h -12 z" /><path
       inkscape:connector-curvature="0"
       id="path142"
       style="fill:none;stroke:#e6e6e6;stroke-width:0.97500002;stroke-linecap:round;stroke-linejoin:bevel;stroke-miterlimit:6;stroke-dasharray:none;stroke-opacity:1"
       d="m 10,304 h 150 v 24 H 10 Z" /><path
       inkscape:connector-curvature="0"
       id="path144"
       style="fill:#000000;fill-opacity:1;fill-rule:evenodd;stroke:none;stroke-width:0.1"
       d="m 148,304 h 12 v 24 h -12 z" /><path
       inkscape:connector-curvature="0"
       id="path146"
       style="fill:#e6e6e6;stroke:#e6e6e6;stroke-width:0.97500002;stroke-linecap:round;stroke-linejoin:bevel;stroke-miterlimit:6;stroke-dasharray:none;stroke-opacity:1;fill-opacity:1"
       d="m 148,304 h 12 v 24 h -12 z" /><text
       transform="scale(1,-1)"
       style="font-variant:normal;font-weight:normal;font-size:9px;font-family:Helvetica;-inkscape-font-specification:Helvetica;writing-mode:lr-tb;fill:#ffffff;fill-opacity:1;fill-rule:nonzero;stroke:none;"
       id="text152"
       x="15.7469"
       y="-310"><tspan
         x="15.7469 21.245899 28.742901 35.7449 38.246899 44.249901 49.253899 54.2579 56.255898 61.259899 65.759903 68.261902 74.2649 80.762901"
         y="-310"
         sodipodi:role="line"
         id="tspan150">ZMQ Angles PUB</tspan></text>
<path
       inkscape:connector-curvature="0"
       id="path154"
       style="fill:none;stroke:#e6e6e6;stroke-width:0.97500002;stroke-linecap:round;stroke-linejoin:bevel;stroke-miterlimit:6;stroke-dasharray:none;stroke-opacity:1"
       d="M 238,160 V 334" /><path
       inkscape:connector-curvature="0"
       id="path156"
       style="fill:none;stroke:#e6e6e6;stroke-width:0.97500002;stroke-linecap:round;stroke-linejoin:bevel;stroke-miterlimit:6;stroke-dasharray:none;stroke-opacity:1"
       d="M 460,70 H 436 V 40 H 220 v 276 h -60" /><text
       transform="scale(1,-1)"
       style="font-variant:normal;font-weight:normal;font-size:9px;font-family:Helvetica;-inkscape-font-specification:Helvetica;writing-mode:lr-tb;fill:#ffffff;fill-opacity:1;fill-rule:nonzero;stroke:none;"
       id="text162"
       x="165.323"
       y="-322"><tspan
         x="165.323 172.82001 177.32001 182.32401 185.321 191.32401 196.328 201.332 203.33 208.334 212.834 215.336 217.838 223.841 228.845 233.345 235.343 240.347 245.351 250.355"
         y="-322"
         sodipodi:role="line"
         id="tspan160">Msg(Angles, Payload)</tspan></text>
</g></svg>