<?xml version="1.0" encoding="UTF-8" standalone="no"?>
<!-- Created with Inkscape (http://www.inkscape.org/) -->

<svg
   xmlns:dc="http://purl.org/dc/elements/1.1/"
   xmlns:cc="http://creativecommons.org/ns#"
   xmlns:rdf="http://www.w3.org/1999/02/22-rdf-syntax-ns#"
   xmlns:svg="http://www.w3.org/2000/svg"
   xmlns="http://www.w3.org/2000/svg"
   xmlns:sodipodi="http://sodipodi.sourceforge.net/DTD/sodipodi-0.dtd"
   xmlns:inkscape="http://www.inkscape.org/namespaces/inkscape"
   version="1.1"
   id="svg2"
   xml:space="preserve"
   width="440.82373"
   height="437.6857"
   viewBox="0 0 440.82374 437.6857"
   sodipodi:docname="tramaspata3dof.svg"
   inkscape:export-filename="/home/cancerbero/data/tesis/presentacion/presentacion-tesis/images/tramaspata3dof_1.png"
   inkscape:export-xdpi="200"
   inkscape:export-ydpi="200"
   inkscape:version="0.92.4 (5da689c313, 2019-01-14)"><metadata
     id="metadata8"><rdf:RDF><cc:Work
         rdf:about=""><dc:format>image/svg+xml</dc:format><dc:type
           rdf:resource="http://purl.org/dc/dcmitype/StillImage" /><dc:title></dc:title></cc:Work></rdf:RDF></metadata><defs
     id="defs6" /><sodipodi:namedview
     pagecolor="#545f61"
     bordercolor="#666666"
     borderopacity="1"
     objecttolerance="10"
     gridtolerance="10"
     guidetolerance="10"
     inkscape:pageopacity="0"
     inkscape:pageshadow="2"
     inkscape:window-width="1916"
     inkscape:window-height="1041"
     id="namedview4"
     showgrid="false"
     fit-margin-top="5"
     fit-margin-left="5"
     fit-margin-bottom="5"
     fit-margin-right="5"
     inkscape:zoom="1.6856283"
     inkscape:cx="128.30432"
     inkscape:cy="245.12839"
     inkscape:window-x="0"
     inkscape:window-y="18"
     inkscape:window-maximized="0"
     inkscape:current-layer="layer1" /><g
     id="g10"
     inkscape:groupmode="layer"
     inkscape:label="0"
     transform="matrix(1.3333333,0,0,-1.3333333,22.464595,414.95935)"><path
       inkscape:connector-curvature="0"
       id="path20"
       style="fill:none;stroke:#e6e6e6;stroke-width:0.97500002;stroke-linecap:round;stroke-linejoin:miter;stroke-miterlimit:6;stroke-dasharray:none;stroke-opacity:1"
       d="m 148.75,167.125 -120,48" /><path
       inkscape:connector-curvature="0"
       id="path22"
       style="fill:none;stroke:#e6e6e6;stroke-width:0.97500002;stroke-linecap:round;stroke-linejoin:miter;stroke-miterlimit:6;stroke-dasharray:none;stroke-opacity:1"
       d="m 196.75,257.125 -48,-90" /><path
       inkscape:connector-curvature="0"
       id="path24"
       style="fill:none;stroke:#e6e6e6;stroke-width:0.97500002;stroke-linecap:round;stroke-linejoin:miter;stroke-miterlimit:6;stroke-dasharray:none;stroke-opacity:1"
       d="m 256.375,35.125 -59.625,222" /><path
       inkscape:connector-curvature="0"
       id="path32"
       style="fill:#e6e6e6;fill-opacity:1;fill-rule:evenodd;stroke:#e6e6e6;stroke-width:0.97500002;stroke-miterlimit:6;stroke-dasharray:none;stroke-opacity:1"
       d="m 259,35.125 c 0,1.2426 -1.007,2.25 -2.25,2.25 -1.243,0 -2.25,-1.0074 -2.25,-2.25 0,-1.2426 1.007,-2.25 2.25,-2.25 1.243,0 2.25,1.0074 2.25,2.25" /><path
       inkscape:connector-curvature="0"
       id="path52"
       style="fill:none;stroke:#e6e6e6;stroke-width:0.97499999;stroke-linecap:round;stroke-linejoin:miter;stroke-miterlimit:6;stroke-dasharray:2.92499997,2.92499997;stroke-dashoffset:0;stroke-opacity:1"
       d="m 188.5,206.875 -63.75,-63.75" /><path
       inkscape:connector-curvature="0"
       id="path54"
       style="fill:none;stroke:#e6e6e6;stroke-width:0.97499999;stroke-linecap:round;stroke-linejoin:miter;stroke-miterlimit:6;stroke-dasharray:2.92499997,2.92499997;stroke-dashoffset:0;stroke-opacity:1"
       d="M 229.75,290.125 166,226.375" /><path
       inkscape:connector-curvature="0"
       id="path64"
       style="fill:none;stroke:#e6e6e6;stroke-width:0.97500002;stroke-linecap:round;stroke-linejoin:miter;stroke-miterlimit:6;stroke-dasharray:2.92500007,2.92500007;stroke-dashoffset:0;stroke-opacity:1"
       d="m 28.75,137.125 v 156" /><path
       inkscape:connector-curvature="0"
       id="path66"
       style="fill:none;stroke:#e6e6e6;stroke-width:0.97500002;stroke-linecap:round;stroke-linejoin:miter;stroke-miterlimit:6;stroke-dasharray:none;stroke-opacity:1"
       d="m 130.75,143.125 -6,6" /><path
       inkscape:connector-curvature="0"
       id="path68"
       style="fill:none;stroke:#e6e6e6;stroke-width:0.97500002;stroke-linecap:round;stroke-linejoin:miter;stroke-miterlimit:6;stroke-dasharray:none;stroke-opacity:1"
       d="m 172.75,227.125 -6,6" /><path
       inkscape:connector-curvature="0"
       id="path72"
       style="fill:none;stroke:#e6e6e6;stroke-width:0.97500002;stroke-linecap:round;stroke-linejoin:miter;stroke-miterlimit:6;stroke-dasharray:none;stroke-opacity:1"
       d="m 132.25,144.625 -6,6" /><path
       inkscape:connector-curvature="0"
       id="path74"
       style="fill:none;stroke:#e6e6e6;stroke-width:0.97500002;stroke-linecap:round;stroke-linejoin:miter;stroke-miterlimit:6;stroke-dasharray:none;stroke-opacity:1"
       d="m 174.625,228.625 -6,6" /><path
       inkscape:connector-curvature="0"
       id="path78"
       style="fill:#e6e6e6;fill-opacity:1;fill-rule:evenodd;stroke:#e6e6e6;stroke-width:0.97500002;stroke-miterlimit:6;stroke-dasharray:none;stroke-opacity:1"
       d="m 199,257.125 c 0,1.243 -1.007,2.25 -2.25,2.25 -1.243,0 -2.25,-1.007 -2.25,-2.25 0,-1.243 1.007,-2.25 2.25,-2.25 1.243,0 2.25,1.007 2.25,2.25" /><path
       inkscape:connector-curvature="0"
       id="path82"
       style="fill:#e6e6e6;fill-opacity:1;fill-rule:evenodd;stroke:#e6e6e6;stroke-width:0.97500002;stroke-miterlimit:6;stroke-dasharray:none;stroke-opacity:1"
       d="m 31,215.125 c 0,1.243 -1.0074,2.25 -2.25,2.25 -1.2426,0 -2.25,-1.007 -2.25,-2.25 0,-1.243 1.0074,-2.25 2.25,-2.25 1.2426,0 2.25,1.007 2.25,2.25" /><circle
       style="fill:#e6e6e6;fill-opacity:1;stroke:#e6e6e6;stroke-width:0.97499996;stroke-linejoin:miter;stroke-miterlimit:6;stroke-dasharray:none;stroke-dashoffset:0;stroke-opacity:1"
       id="path949"
       cx="196.81651"
       cy="-256.35574"
       r="5.7285762"
       transform="scale(1,-1)" /><circle
       style="fill:#e6e6e6;fill-opacity:1;stroke:#e6e6e6;stroke-width:0.97499996;stroke-linejoin:miter;stroke-miterlimit:6;stroke-dasharray:none;stroke-dashoffset:0;stroke-opacity:1"
       id="path949-3"
       cx="148.43965"
       cy="-166.77615"
       r="5.7285762"
       transform="scale(1,-1)" /><circle
       style="fill:#e6e6e6;fill-opacity:1;stroke:#e6e6e6;stroke-width:0.97499996;stroke-linejoin:miter;stroke-miterlimit:6;stroke-dasharray:none;stroke-dashoffset:0;stroke-opacity:1"
       id="path949-6"
       cx="28.456039"
       cy="-214.79942"
       r="5.7285762"
       transform="scale(1,-1)" /></g><g
     inkscape:groupmode="layer"
     id="layer1"
     inkscape:label="1"
     style="display:inline"
     transform="translate(25.797928,18.466773)"><path
       transform="matrix(1.3333333,0,0,-1.3333333,-3.3333331,396.49258)"
       inkscape:connector-curvature="0"
       id="path16"
       style="fill:none;stroke:#e6e6e6;stroke-width:0.97500002;stroke-linecap:round;stroke-linejoin:miter;stroke-miterlimit:6;stroke-dasharray:none;stroke-opacity:1"
       d="m 10.75,197.125 18,18" /><path
       transform="matrix(1.3333333,0,0,-1.3333333,-3.3333331,396.49258)"
       inkscape:connector-curvature="0"
       id="path18"
       style="fill:none;stroke:#e6e6e6;stroke-width:0.97500002;stroke-linecap:round;stroke-linejoin:miter;stroke-miterlimit:6;stroke-dasharray:none;stroke-opacity:1"
       d="m 64.75,215.125 h -36" /><path
       transform="matrix(1.3333333,0,0,-1.3333333,-3.3333331,396.49258)"
       inkscape:connector-curvature="0"
       id="path26"
       style="fill:#e6e6e6;fill-opacity:1;fill-rule:evenodd;stroke:#e6e6e6;stroke-width:0.97500002;stroke-miterlimit:6;stroke-dasharray:none;stroke-opacity:1"
       d="m 61,212.125 c 3.75,1.875 4.875,1.875 10.5,3 -5.625,1.125 -6.75,1.125 -10.5,3 0.75,-2.25 0.75,-3.75 0,-6" /><path
       transform="matrix(1.3333333,0,0,-1.3333333,-3.3333331,396.49258)"
       inkscape:connector-curvature="0"
       id="path28"
       style="fill:#e6e6e6;fill-opacity:1;fill-rule:evenodd;stroke:#e6e6e6;stroke-width:0.97500002;stroke-miterlimit:6;stroke-dasharray:none;stroke-opacity:1"
       d="m 31.75,241.375 c -1.875,3.75 -1.875,4.875 -3,10.5 -1.125,-5.625 -1.125,-6.75 -3,-10.5 2.25,0.75 3.75,0.75 6,0" /><path
       transform="matrix(1.3333333,0,0,-1.3333333,-3.3333331,396.49258)"
       inkscape:connector-curvature="0"
       id="path30"
       style="fill:#e6e6e6;fill-opacity:1;fill-rule:evenodd;stroke:#e6e6e6;stroke-width:0.97500002;stroke-miterlimit:6;stroke-dasharray:none;stroke-opacity:1"
       d="m 11.5531,202.171 c -1.3258,-3.978 -2.12107,-4.773 -5.3031,-9.546 4.773,3.182 5.5684,3.977 9.5461,5.303 -2.1215,1.061 -3.182,2.122 -4.243,4.243" /><path
       transform="matrix(1.3333333,0,0,-1.3333333,-3.3333331,396.49258)"
       inkscape:connector-curvature="0"
       id="path40"
       style="fill:none;stroke:#e6e6e6;stroke-width:0.97500002;stroke-linecap:round;stroke-linejoin:miter;stroke-miterlimit:6;stroke-dasharray:none;stroke-opacity:1"
       d="m 178.75,155.125 -30,12" /><path
       transform="matrix(1.3333333,0,0,-1.3333333,-3.3333331,396.49258)"
       inkscape:connector-curvature="0"
       id="path42"
       style="fill:none;stroke:#e6e6e6;stroke-width:0.97500002;stroke-linecap:round;stroke-linejoin:miter;stroke-miterlimit:6;stroke-dasharray:none;stroke-opacity:1"
       d="m 208.75,281.125 -12,-24" /><path
       transform="matrix(1.3333333,0,0,-1.3333333,-3.3333331,396.49258)"
       inkscape:connector-curvature="0"
       id="path44"
       style="fill:#e6e6e6;fill-opacity:1;fill-rule:evenodd;stroke:#e6e6e6;stroke-width:0.97500002;stroke-miterlimit:6;stroke-dasharray:none;stroke-opacity:1"
       d="m 173.782,154.402 c 4.185,-0.251 5.159,-0.814 10.593,-2.652 -4.309,3.787 -5.283,4.349 -7.593,7.848 -0.476,-2.323 -1.226,-3.623 -3,-5.196" /><path
       transform="matrix(1.3333333,0,0,-1.3333333,-3.3333331,396.49258)"
       inkscape:connector-curvature="0"
       id="path46"
       style="fill:#e6e6e6;fill-opacity:1;fill-rule:evenodd;stroke:#e6e6e6;stroke-width:0.97500002;stroke-miterlimit:6;stroke-dasharray:none;stroke-opacity:1"
       d="m 165.572,179.704 c 1.326,3.978 2.121,4.773 5.303,9.546 -4.773,-3.182 -5.568,-3.977 -9.546,-5.303 2.121,-1.061 3.182,-2.122 4.243,-4.243" /><path
       transform="matrix(1.3333333,0,0,-1.3333333,-3.3333331,396.49258)"
       inkscape:connector-curvature="0"
       id="path48"
       style="fill:#e6e6e6;fill-opacity:1;fill-rule:evenodd;stroke:#e6e6e6;stroke-width:0.97500002;stroke-miterlimit:6;stroke-dasharray:none;stroke-opacity:1"
       d="m 212.822,268.954 c 1.326,3.978 2.121,4.773 5.303,9.546 -4.773,-3.182 -5.568,-3.977 -9.546,-5.303 2.121,-1.061 3.182,-2.122 4.243,-4.243" /><path
       transform="matrix(1.3333333,0,0,-1.3333333,-3.3333331,396.49258)"
       inkscape:connector-curvature="0"
       id="path50"
       style="fill:#e6e6e6;fill-opacity:1;fill-rule:evenodd;stroke:#e6e6e6;stroke-width:0.97500002;stroke-miterlimit:6;stroke-dasharray:none;stroke-opacity:1"
       d="m 209.473,276.157 c 0.251,4.185 0.814,5.159 2.652,10.593 -3.787,-4.309 -4.349,-5.283 -7.848,-7.593 2.323,-0.476 3.623,-1.226 5.196,-3" /><path
       transform="matrix(1.3333333,0,0,-1.3333333,-3.3333331,396.49258)"
       inkscape:connector-curvature="0"
       id="path58"
       style="fill:none;stroke:#e6e6e6;stroke-width:0.97500002;stroke-linecap:round;stroke-linejoin:miter;stroke-miterlimit:6;stroke-dasharray:none;stroke-opacity:1"
       d="m 262.375,12.625 -8.25,31.125" /><path
       transform="matrix(1.3333333,0,0,-1.3333333,-3.3333331,396.49258)"
       inkscape:connector-curvature="0"
       id="path60"
       style="fill:#e6e6e6;fill-opacity:1;fill-rule:evenodd;stroke:#e6e6e6;stroke-width:0.97500002;stroke-miterlimit:6;stroke-dasharray:none;stroke-opacity:1"
       d="m 272.447,46.5789 c 1.326,3.9777 2.121,4.7731 5.303,9.5461 -4.773,-3.182 -5.568,-3.9773 -9.546,-5.3031 2.121,-1.061 3.182,-2.1215 4.243,-4.243" /><path
       transform="matrix(1.3333333,0,0,-1.3333333,-3.3333331,396.49258)"
       inkscape:connector-curvature="0"
       id="path62"
       style="fill:#e6e6e6;fill-opacity:1;fill-rule:evenodd;stroke:#e6e6e6;stroke-width:0.97500002;stroke-miterlimit:6;stroke-dasharray:none;stroke-opacity:1"
       d="m 258.635,15.2406 c 2.781,-3.1367 3.072,-4.2234 5.615,-9.3656 -0.369,5.7246 -0.661,6.8113 0.18,10.9188 -1.979,-1.3071 -3.428,-1.695 -5.795,-1.5532" /><path
       transform="matrix(1.3333333,0,0,-1.3333333,-3.3333331,396.49258)"
       inkscape:connector-curvature="0"
       id="path56"
       style="fill:none;stroke:#e6e6e6;stroke-width:0.97499996;stroke-linecap:round;stroke-linejoin:miter;stroke-miterlimit:6;stroke-dasharray:2.92499997, 2.92499997;stroke-dashoffset:0;stroke-opacity:1"
       d="M 289.375,67.75 225.625,4" /><path
       transform="matrix(1.3333333,0,0,-1.3333333,-3.3333331,396.49258)"
       inkscape:connector-curvature="0"
       id="path70"
       style="fill:none;stroke:#e6e6e6;stroke-width:0.97500002;stroke-linecap:round;stroke-linejoin:miter;stroke-miterlimit:6;stroke-dasharray:none;stroke-opacity:1"
       d="m 232.75,5.125 -6,6" /><path
       transform="matrix(1.3333333,0,0,-1.3333333,-3.3333331,396.49258)"
       inkscape:connector-curvature="0"
       id="path76"
       style="fill:none;stroke:#e6e6e6;stroke-width:0.97500002;stroke-linecap:round;stroke-linejoin:miter;stroke-miterlimit:6;stroke-dasharray:none;stroke-opacity:1"
       d="m 234.25,6.25 -6,6" /><text
       xml:space="preserve"
       style="font-style:normal;font-variant:normal;font-weight:normal;font-stretch:normal;font-size:40px;line-height:1.25;font-family:sans-serif;-inkscape-font-specification:sans-serif;letter-spacing:0px;word-spacing:0px;fill:#e6e6e6;fill-opacity:1;stroke:none"
       x="-21.950272"
       y="155.65945"
       id="text974"><tspan
         sodipodi:role="line"
         id="tspan972"
         x="-21.950272"
         y="155.65945">x<tspan
   style="font-size:64.99999762%;baseline-shift:sub;fill:#e6e6e6;fill-opacity:1"
   id="tspan976">0</tspan></tspan></text>
<text
       xml:space="preserve"
       style="font-style:normal;font-variant:normal;font-weight:normal;font-stretch:normal;font-size:40px;line-height:1.25;font-family:sans-serif;-inkscape-font-specification:sans-serif;letter-spacing:0px;word-spacing:0px;fill:#e6e6e6;fill-opacity:1;stroke:none"
       x="81.868584"
       y="90.99514"
       id="text980"><tspan
         sodipodi:role="line"
         id="tspan978"
         x="81.868584"
         y="90.99514">y<tspan
   style="font-size:64.99999762%;baseline-shift:sub;fill:#e6e6e6;fill-opacity:1"
   id="tspan982">0</tspan></tspan></text>
<text
       xml:space="preserve"
       style="font-style:normal;font-variant:normal;font-weight:normal;font-stretch:normal;font-size:40px;line-height:1.25;font-family:sans-serif;-inkscape-font-specification:sans-serif;letter-spacing:0px;word-spacing:0px;fill:#e6e6e6;fill-opacity:1;stroke:none"
       x="-10.975135"
       y="63.705612"
       id="text986"><tspan
         sodipodi:role="line"
         id="tspan984"
         x="-10.975135"
         y="63.705612">z<tspan
   style="font-size:64.99999762%;baseline-shift:sub;fill:#e6e6e6;fill-opacity:1"
   id="tspan988">0</tspan></tspan></text>
<text
       xml:space="preserve"
       style="font-style:normal;font-variant:normal;font-weight:normal;font-stretch:normal;font-size:40px;line-height:1.25;font-family:sans-serif;-inkscape-font-specification:sans-serif;letter-spacing:0px;word-spacing:0px;display:inline;fill:#e6e6e6;fill-opacity:1;stroke:none"
       x="216.35391"
       y="218.99298"
       id="text974-7"><tspan
         sodipodi:role="line"
         id="tspan972-5"
         x="216.35391"
         y="218.99298">x<tspan
   style="font-size:64.99999762%;baseline-shift:sub"
   id="tspan1011">1</tspan></tspan></text>
<text
       xml:space="preserve"
       style="font-style:normal;font-variant:normal;font-weight:normal;font-stretch:normal;font-size:40px;line-height:1.25;font-family:sans-serif;-inkscape-font-specification:sans-serif;letter-spacing:0px;word-spacing:0px;display:inline;fill:#e6e6e6;fill-opacity:1;stroke:none"
       x="227.46663"
       y="165.71754"
       id="text986-5"><tspan
         sodipodi:role="line"
         id="tspan984-6"
         x="227.46663"
         y="165.71754">z<tspan
   style="font-size:64.99999762%;baseline-shift:sub"
   id="tspan1069">1</tspan></tspan></text>
<text
       xml:space="preserve"
       style="font-style:normal;font-variant:normal;font-weight:normal;font-stretch:normal;font-size:40px;line-height:1.25;font-family:sans-serif;-inkscape-font-specification:sans-serif;letter-spacing:0px;word-spacing:0px;display:inline;fill:#e6e6e6;fill-opacity:1;stroke:none"
       x="235.43695"
       y="8.408227"
       id="text986-9"><tspan
         sodipodi:role="line"
         id="tspan984-1"
         x="235.43695"
         y="8.408227">z<tspan
   style="font-size:64.99999762%;baseline-shift:sub"
   id="tspan1073">2</tspan></tspan></text>
<text
       xml:space="preserve"
       style="font-style:normal;font-variant:normal;font-weight:normal;font-stretch:normal;font-size:40px;line-height:1.25;font-family:sans-serif;-inkscape-font-specification:sans-serif;letter-spacing:0px;word-spacing:0px;display:inline;fill:#e6e6e6;fill-opacity:1;stroke:none"
       x="283.47253"
       y="56.230263"
       id="text974-0"><tspan
         sodipodi:role="line"
         id="tspan972-9"
         x="283.47253"
         y="56.230263">x<tspan
   style="font-size:64.99999762%;baseline-shift:sub"
   id="tspan1071">2</tspan></tspan></text>
<text
       xml:space="preserve"
       style="font-style:normal;font-variant:normal;font-weight:normal;font-stretch:normal;font-size:40px;line-height:1.25;font-family:sans-serif;-inkscape-font-specification:sans-serif;letter-spacing:0px;word-spacing:0px;display:inline;fill:#e6e6e6;fill-opacity:1;stroke:none"
       x="374.55023"
       y="341.66858"
       id="text986-9-6"><tspan
         sodipodi:role="line"
         id="tspan984-1-0"
         x="374.55023"
         y="341.66858">z<tspan
   style="font-size:64.99999762%;baseline-shift:sub"
   id="tspan1107">3</tspan></tspan></text>
<text
       xml:space="preserve"
       style="font-style:normal;font-variant:normal;font-weight:normal;font-stretch:normal;font-size:40px;line-height:1.25;font-family:sans-serif;-inkscape-font-specification:sans-serif;letter-spacing:0px;word-spacing:0px;display:inline;fill:#e6e6e6;fill-opacity:1;stroke:none"
       x="351.27225"
       y="405.85077"
       id="text974-0-2"><tspan
         sodipodi:role="line"
         id="tspan972-9-6"
         x="351.27225"
         y="405.85077">x<tspan
   style="font-size:64.99999762%;baseline-shift:sub"
   id="tspan1105">3</tspan></tspan></text>
<path
       transform="matrix(1.3333333,0,0,-1.3333333,-3.3333331,396.49258)"
       inkscape:connector-curvature="0"
       id="path38"
       style="fill:none;stroke:#e6e6e6;stroke-width:0.97500002;stroke-linecap:round;stroke-linejoin:miter;stroke-miterlimit:6;stroke-dasharray:none;stroke-opacity:1"
       d="m 274.75,53.125 -18,-18" /><path
       transform="matrix(1.3333333,0,0,-1.3333333,-3.333333,396.49258)"
       inkscape:connector-curvature="0"
       id="path14"
       style="fill:none;stroke:#e6e6e6;stroke-width:0.97500002;stroke-linecap:round;stroke-linejoin:miter;stroke-miterlimit:6;stroke-dasharray:none;stroke-opacity:1"
       d="m 28.75,215.125 v 30" /><path
       transform="matrix(1.3333333,0,0,-1.3333333,-3.333333,396.49258)"
       inkscape:connector-curvature="0"
       id="path34"
       style="fill:none;stroke:#e6e6e6;stroke-width:0.97500002;stroke-linecap:round;stroke-linejoin:miter;stroke-miterlimit:6;stroke-dasharray:none;stroke-opacity:1"
       d="m 166.75,185.125 -18,-18" /><path
       transform="matrix(1.3333333,0,0,-1.3333333,-3.333333,396.49258)"
       inkscape:connector-curvature="0"
       id="path80"
       style="fill:#e6e6e6;fill-opacity:1;fill-rule:evenodd;stroke:#e6e6e6;stroke-width:0.97500002;stroke-miterlimit:6;stroke-dasharray:none;stroke-opacity:1"
       d="m 151,167.125 c 0,1.243 -1.007,2.25 -2.25,2.25 -1.243,0 -2.25,-1.007 -2.25,-2.25 0,-1.243 1.007,-2.25 2.25,-2.25 1.243,0 2.25,1.007 2.25,2.25" /><path
       transform="matrix(1.3333333,0,0,-1.3333333,-3.333333,396.49258)"
       inkscape:connector-curvature="0"
       id="path36"
       style="fill:none;stroke:#e6e6e6;stroke-width:0.97500002;stroke-linecap:round;stroke-linejoin:miter;stroke-miterlimit:6;stroke-dasharray:none;stroke-opacity:1"
       d="m 214.75,275.125 -18,-18" /></g></svg>