<?xml version="1.0" encoding="UTF-8" standalone="no"?>
<!-- Created with Inkscape (http://www.inkscape.org/) -->

<svg
   xmlns:dc="http://purl.org/dc/elements/1.1/"
   xmlns:cc="http://creativecommons.org/ns#"
   xmlns:rdf="http://www.w3.org/1999/02/22-rdf-syntax-ns#"
   xmlns:svg="http://www.w3.org/2000/svg"
   xmlns="http://www.w3.org/2000/svg"
   xmlns:sodipodi="http://sodipodi.sourceforge.net/DTD/sodipodi-0.dtd"
   xmlns:inkscape="http://www.inkscape.org/namespaces/inkscape"
   version="1.1"
   id="svg2"
   xml:space="preserve"
   width="554.95978"
   height="424.57263"
   viewBox="0 0 554.95978 424.57263"
   sodipodi:docname="trayectoriapata.svg"
   inkscape:version="0.92.4 (5da689c313, 2019-01-14)"
   inkscape:export-filename="/home/cancerbero/data/tesis/presentacion/presentacion-tesis/images/trayectoriapata_0.png"
   inkscape:export-xdpi="200"
   inkscape:export-ydpi="200"><metadata
     id="metadata8"><rdf:RDF><cc:Work
         rdf:about=""><dc:format>image/svg+xml</dc:format><dc:type
           rdf:resource="http://purl.org/dc/dcmitype/StillImage" /><dc:title></dc:title></cc:Work></rdf:RDF></metadata><defs
     id="defs6" /><sodipodi:namedview
     pagecolor="#3c3c3c"
     bordercolor="#666666"
     borderopacity="1"
     objecttolerance="10"
     gridtolerance="10"
     guidetolerance="10"
     inkscape:pageopacity="0"
     inkscape:pageshadow="2"
     inkscape:window-width="1916"
     inkscape:window-height="1041"
     id="namedview4"
     showgrid="false"
     fit-margin-left="5"
     fit-margin-top="5"
     fit-margin-bottom="5"
     fit-margin-right="5"
     inkscape:zoom="1.4788633"
     inkscape:cx="176.22622"
     inkscape:cy="180.59281"
     inkscape:window-x="0"
     inkscape:window-y="18"
     inkscape:window-maximized="0"
     inkscape:current-layer="g10" /><g
     id="g10"
     inkscape:groupmode="layer"
     inkscape:label="0"
     transform="matrix(1.3333333,0,0,-1.3333333,-2.7827828,427.8464)"><path
       inkscape:connector-curvature="0"
       id="path14"
       style="fill:none;stroke:#e6e6e6;stroke-width:0.97500002;stroke-linecap:round;stroke-linejoin:miter;stroke-miterlimit:6;stroke-dasharray:none;stroke-opacity:1"
       d="m 119.875,83.125 v 228" /><path
       inkscape:connector-curvature="0"
       id="path16"
       style="fill:none;stroke:#e6e6e6;stroke-width:0.97500002;stroke-linecap:round;stroke-linejoin:miter;stroke-miterlimit:6;stroke-dasharray:none;stroke-opacity:1"
       d="m 11.875,11.125 108,72" /><path
       inkscape:connector-curvature="0"
       id="path18"
       style="fill:none;stroke:#e6e6e6;stroke-width:0.97500002;stroke-linecap:round;stroke-linejoin:miter;stroke-miterlimit:6;stroke-dasharray:none;stroke-opacity:1"
       d="m 383.875,83.125 h -264" /><path
       inkscape:connector-curvature="0"
       id="path20"
       style="fill:#e6e6e6;fill-opacity:1;fill-rule:evenodd;stroke:#e6e6e6;stroke-width:0.1;stroke-opacity:1"
       d="m 131.875,215.125 c 0,6.627 -5.373,12 -12,12 -6.627,0 -12,-5.373 -12,-12 0,-6.627 5.373,-12 12,-12 6.627,0 12,5.373 12,12" /><path
       inkscape:connector-curvature="0"
       id="path22"
       style="fill:none;stroke:#e6e6e6;stroke-width:0.97500002;stroke-linecap:round;stroke-linejoin:miter;stroke-miterlimit:6;stroke-dasharray:none;stroke-opacity:1"
       d="m 131.875,215.125 c 0,6.627 -5.373,12 -12,12 -6.627,0 -12,-5.373 -12,-12 0,-6.627 5.373,-12 12,-12 6.627,0 12,5.373 12,12" /><path
       inkscape:connector-curvature="0"
       id="path24"
       style="fill:#e6e6e6;fill-opacity:1;fill-rule:evenodd;stroke:#e6e6e6;stroke-width:0.1;stroke-opacity:1"
       d="m 227.875,203.125 c 0,6.627 -5.373,12 -12,12 -6.627,0 -12,-5.373 -12,-12 0,-6.627 5.373,-12 12,-12 6.627,0 12,5.373 12,12" /><path
       inkscape:connector-curvature="0"
       id="path26"
       style="fill:none;stroke:#e6e6e6;stroke-width:0.97500002;stroke-linecap:round;stroke-linejoin:miter;stroke-miterlimit:6;stroke-dasharray:none;stroke-opacity:1"
       d="m 227.875,203.125 c 0,6.627 -5.373,12 -12,12 -6.627,0 -12,-5.373 -12,-12 0,-6.627 5.373,-12 12,-12 6.627,0 12,5.373 12,12" /><path
       inkscape:connector-curvature="0"
       id="path28"
       style="fill:#e6e6e6;fill-opacity:1;fill-rule:evenodd;stroke:#e6e6e6;stroke-width:0.1;stroke-opacity:1"
       d="m 289,275.125 c 0,7.248 -5.877,13.125 -13.125,13.125 -7.248,0 -13.125,-5.877 -13.125,-13.125 0,-7.248 5.877,-13.125 13.125,-13.125 7.248,0 13.125,5.877 13.125,13.125" /><path
       inkscape:connector-curvature="0"
       id="path30"
       style="fill:none;stroke:#e6e6e6;stroke-width:0.97500002;stroke-linecap:round;stroke-linejoin:miter;stroke-miterlimit:6;stroke-dasharray:none;stroke-opacity:1"
       d="m 289,275.125 c 0,7.248 -5.877,13.125 -13.125,13.125 -7.248,0 -13.125,-5.877 -13.125,-13.125 0,-7.248 5.877,-13.125 13.125,-13.125 7.248,0 13.125,5.877 13.125,13.125" /><path
       inkscape:connector-curvature="0"
       id="path32"
       style="fill:none;stroke:#e6e6e6;stroke-width:0.97500002;stroke-linecap:round;stroke-linejoin:miter;stroke-miterlimit:6;stroke-dasharray:none;stroke-opacity:1"
       d="m 215.875,203.125 -96,12" /><path
       inkscape:connector-curvature="0"
       id="path34"
       style="fill:none;stroke:#e6e6e6;stroke-width:0.97500002;stroke-linecap:round;stroke-linejoin:miter;stroke-miterlimit:6;stroke-dasharray:none;stroke-opacity:1"
       d="m 275.875,275.125 -60,-72" /><path
       inkscape:connector-curvature="0"
       id="path36"
       style="fill:none;stroke:#e6e6e6;stroke-width:0.97500002;stroke-linecap:round;stroke-linejoin:miter;stroke-miterlimit:6;stroke-dasharray:none;stroke-opacity:1"
       d="m 311.875,23.125 -36,252" /><path
       inkscape:connector-curvature="0"
       id="path38"
       style="fill:#e6e6e6;fill-opacity:1;fill-rule:evenodd;stroke:#e6e6e6;stroke-width:0.1;stroke-opacity:1"
       d="m 314.125,23.125 c 0,1.2426 -1.007,2.25 -2.25,2.25 -1.243,0 -2.25,-1.0074 -2.25,-2.25 0,-1.2426 1.007,-2.25 2.25,-2.25 1.243,0 2.25,1.0074 2.25,2.25" /><path
       inkscape:connector-curvature="0"
       id="path54"
       style="fill:#e6e6e6;fill-opacity:1;fill-rule:evenodd;stroke:#e6e6e6;stroke-width:0.1;stroke-opacity:1"
       d="m 122.875,306.625 c -1.875,3.75 -1.875,4.875 -3,10.5 -1.125,-5.625 -1.125,-6.75 -3,-10.5 2.25,0.75 3.75,0.75 6,0" /><path
       inkscape:connector-curvature="0"
       id="path56"
       style="fill:#e6e6e6;fill-opacity:1;fill-rule:evenodd;stroke:#e6e6e6;stroke-width:0.1;stroke-opacity:1"
       d="M 12.302,15.0785 C 10.5016,11.2922 9.61484,10.5996 5.875,6.25 11,8.82656 11.8867,9.51914 15.9961,10.3504 c -1.9762,1.3113 -2.8996,2.4934 -3.6941,4.7281" /><path
       inkscape:connector-curvature="0"
       id="path58"
       style="fill:#e6e6e6;fill-opacity:1;fill-rule:evenodd;stroke:#e6e6e6;stroke-width:0.1;stroke-opacity:1"
       d="m 379.375,80.125 c 3.75,1.875 4.875,1.875 10.5,3 -5.625,1.125 -6.75,1.125 -10.5,3 0.75,-2.25 0.75,-3.75 0,-6" /></g><g
     inkscape:groupmode="layer"
     id="layer1"
     inkscape:label="1"
     style="display:none"
     transform="translate(2.9736855e-8,-2.8286228e-6)"><path
       transform="matrix(1.3333333,0,0,-1.3333333,-2.7827828,427.8464)"
       inkscape:connector-curvature="0"
       id="path42"
       style="fill:#e6e6e6;fill-opacity:1;fill-rule:evenodd;stroke:#e6e6e6;stroke-width:0.1;stroke-opacity:1"
       d="m 386.125,107.125 c 0,1.243 -1.007,2.25 -2.25,2.25 -1.243,0 -2.25,-1.007 -2.25,-2.25 0,-1.243 1.007,-2.25 2.25,-2.25 1.243,0 2.25,1.007 2.25,2.25" /><path
       transform="matrix(1.3333333,0,0,-1.3333333,-2.7827828,427.8464)"
       inkscape:connector-curvature="0"
       id="path44"
       style="fill:#e6e6e6;fill-opacity:1;fill-rule:evenodd;stroke:#e6e6e6;stroke-width:0.1;stroke-opacity:1"
       d="m 350.125,191.125 c 0,1.243 -1.007,2.25 -2.25,2.25 -1.243,0 -2.25,-1.007 -2.25,-2.25 0,-1.243 1.007,-2.25 2.25,-2.25 1.243,0 2.25,1.007 2.25,2.25" /><path
       transform="matrix(1.3333333,0,0,-1.3333333,-2.7827828,427.8464)"
       inkscape:connector-curvature="0"
       id="path46"
       style="fill:none;stroke:#e6e6e6;stroke-width:0.97500002;stroke-linecap:round;stroke-linejoin:miter;stroke-miterlimit:6;stroke-dasharray:none;stroke-opacity:1"
       d="m 383.875,107.125 -72,-84" /><path
       transform="matrix(1.3333333,0,0,-1.3333333,-2.7827828,427.8464)"
       inkscape:connector-curvature="0"
       id="path48"
       style="fill:none;stroke:#e6e6e6;stroke-width:0.97500002;stroke-linecap:round;stroke-linejoin:miter;stroke-miterlimit:6;stroke-dasharray:none;stroke-opacity:1"
       d="m 353.875,71.125 -6,120" /><path
       transform="matrix(1.3333333,0,0,-1.3333333,-2.7827828,427.8464)"
       inkscape:connector-curvature="0"
       id="path50"
       style="fill:#e6e6e6;fill-opacity:1;fill-rule:evenodd;stroke:#e6e6e6;stroke-width:0.1;stroke-opacity:1"
       d="m 335.299,121.332 c -0.697,4.134 -0.368,5.21 0.201,10.918 -2.72,-5.05 -3.049,-6.126 -5.939,-9.164 2.371,0.059 3.806,-0.379 5.738,-1.754" /><path
       transform="matrix(1.3333333,0,0,-1.3333333,-2.7827828,427.8464)"
       inkscape:connector-curvature="0"
       id="path52"
       style="fill:#e6e6e6;fill-opacity:1;fill-rule:evenodd;stroke:#e6e6e6;stroke-width:0.1;stroke-opacity:1"
       d="m 365.094,143.123 c 3.284,-2.606 3.759,-3.625 7.156,-8.248 -1.358,5.573 -1.833,6.593 -1.719,10.784 -1.722,-1.63 -3.081,-2.264 -5.437,-2.536" /><text
       xml:space="preserve"
       style="font-style:normal;font-variant:normal;font-weight:normal;font-stretch:normal;font-size:30px;line-height:1.25;font-family:sans-serif;-inkscape-font-specification:sans-serif;letter-spacing:0px;word-spacing:0px;fill:#ffffff;fill-opacity:1;stroke:none;stroke-width:0.75"
       x="278.48178"
       y="-14.626832"
       id="text893"
       transform="matrix(1.3333333,0,0,1.3333333,-2.7827828,427.8464)"><tspan
         sodipodi:role="line"
         id="tspan891"
         x="278.48178"
         y="-14.626832"
         style="fill:#ffffff;fill-opacity:1;stroke-width:0.75">P<tspan
   style="font-size:64.99999762%;baseline-shift:sub;fill:#ffffff;fill-opacity:1"
   id="tspan895">1</tspan></tspan></text>
<text
       xml:space="preserve"
       style="font-style:normal;font-variant:normal;font-weight:normal;font-stretch:normal;font-size:30px;line-height:1.25;font-family:sans-serif;-inkscape-font-specification:sans-serif;letter-spacing:0px;word-spacing:0px;fill:#ffffff;fill-opacity:1;stroke:none;stroke-width:0.75"
       x="385.99686"
       y="-110.98463"
       id="text899"
       transform="matrix(1.3333333,0,0,1.3333333,-2.7827828,427.8464)"><tspan
         sodipodi:role="line"
         id="tspan897"
         x="385.99686"
         y="-110.98463"
         style="fill:#ffffff;fill-opacity:1;stroke-width:0.75">P<tspan
   style="font-size:64.99999762%;baseline-shift:sub;fill:#ffffff;fill-opacity:1"
   id="tspan901">2</tspan></tspan></text>
<text
       xml:space="preserve"
       style="font-style:normal;font-variant:normal;font-weight:normal;font-stretch:normal;font-size:30px;line-height:1.25;font-family:sans-serif;-inkscape-font-specification:sans-serif;letter-spacing:0px;word-spacing:0px;fill:#ffffff;fill-opacity:1;stroke:none;stroke-width:0.75"
       x="337.31079"
       y="-200.24237"
       id="text905"
       transform="matrix(1.3333333,0,0,1.3333333,-2.7827828,427.8464)"><tspan
         sodipodi:role="line"
         id="tspan903"
         x="337.31079"
         y="-200.24237"
         style="fill:#ffffff;fill-opacity:1;stroke-width:0.75">P<tspan
   style="font-size:64.99999762%;baseline-shift:sub;fill:#ffffff;fill-opacity:1"
   id="tspan907">i</tspan></tspan></text>
<path
       transform="matrix(1.3333333,0,0,-1.3333333,-2.7827828,427.8464)"
       inkscape:connector-curvature="0"
       id="path40"
       style="fill:none;stroke:#e6e6e6;stroke-width:0.97500002;stroke-linecap:round;stroke-linejoin:miter;stroke-miterlimit:6;stroke-dasharray:3.9, 3.9;stroke-dashoffset:0;stroke-opacity:1"
       d="m 383.875,107.125 -36,84 -36,-168" /></g></svg>